<svg xmlns="http://www.w3.org/2000/svg" viewBox="0 0 241 59.2">
  <defs>
    <linearGradient id="a" x1="0" x2="0" y1="0" y2="1">
      <stop offset="0%" stop-color="#00b5f1"/>
      <stop offset="30%" stop-color="#cef3fa"/>
      <stop offset="100%" stop-color="#0092c6"/>
    </linearGradient>
  </defs>
  <path fill="currentColor" d="M181.4 5.3V3.7l1.2-.8c.5-.3 1-.6 1.5-.7.5-.1.9-.2 1.4-.2 1.1 0 1.9.2 2.6.8.7.5 1 1.1 1.1 1.9.1.6.1 2 .1 4.3 0 2.2.1 3.3.1 3.5.1.2.3.3.6.3h.9v.8c-.8-.1-1.4-.1-1.8-.1-.5 0-1 0-1.7.1v-2.1l-2.3 1.9c-.2.1-.5.3-.6.4-.2.1-.4.1-.8.1-1 0-1.7-.2-2.2-.8-.5-.5-.8-1.2-.8-2s.1-1.5.5-2.1c.4-.6.9-1.1 1.6-1.4.7-.3 2.2-.7 4.7-1.1 0-1-.2-1.8-.6-2.2-.5-.6-1.3-1-2.2-1-.4 0-.7.1-1.1.1-.3.1-.6.2-.9.5-.2.6-.5 1.1-.6 1.6zm5.9 2c-2.1.5-3.5.9-4 1.4-.6.5-.8 1.1-.8 2 0 .6.1 1.1.5 1.4.3.4.8.5 1.3.5.6 0 1.1-.1 1.6-.5s1-.8 1.5-1.5V7.9zm-15.9.3v1.5c0 2 .1 3.2.1 3.4.1.2.5.4 1.1.4h.7v.7h-.6c-1.1-.1-1.8-.1-2.2-.1-.1 0-1 0-3 .1v-.7h.7c.7 0 1-.1 1.1-.5.1-.3.1-1.4.1-3.3V5.6c0-1.3-.1-2-.1-2.2-.1-.2-.4-.4-1-.4h-.8v-.7c1 .1 1.9.1 2.6.1 1.2 0 2.2 0 3.1-.1V3h-.8c-.2 0-.5.1-.7.1-.2.1-.3.2-.4.4 0 .1-.1.9-.1 2.2V7l.1.1c1-.8 2.2-1.8 3.4-3.2l1.6-1.6h2.2V3h-.4c-.3 0-.8.2-1.4.7-.7.5-1.9 1.4-3.6 3 1.2 1.1 2.7 2.9 4.5 5.1.6.8 1.2 1.1 1.6 1.1v.7h-.5c-.5-.1-.9-.1-1-.1-.1 0-.6 0-1.4.1-2-2.7-3.8-4.7-5.3-6h-.2zm-4.6-5.3V3h-.8c-.7 0-1.1.2-1.1.7 0 .5-.1 1.9-.1 4.4V11c0 1 0 1.5.1 1.7 0 .1.1.2.2.4.1.1.5.1.8.1h.8v.7c-1.2-.1-2.2-.1-3.2-.1-.8 0-1.6 0-2.6.1V13h.8c.5 0 .8-.1.9-.3.1-.2.1-.8.1-1.9V5.5c0-.8.1-1.4.1-1.9-.3.5-.5.8-.8 1.3-.4.5-.7 1-1 1.4l-2.6 4.1c-1.1 1.7-1.8 2.8-2.3 3.4-.2 0-.8.1-1.7.3.1-1.8.1-3.5.1-5.1 0-3.3 0-5.1-.1-5.4-.1-.3-.4-.5-1-.5h-.4v-.8c1 .1 1.9.1 2.6.1.8 0 1.9 0 3.2-.1V3h-.8c-.2 0-.5.1-.7.1-.2.1-.4.2-.4.4 0 .1-.1.8-.1 1.9v5.1c0 .5 0 1-.1 1.4.3-.3 1-1.3 2.1-3.1l1.6-2.6c.3-.5 1.1-1.8 2.3-3.9.7.1 1.1.1 1.6.1.3 0 1.1 0 2.5-.1zM148.4 7c0-2-.1-3.1-.1-3.5-.1-.4-.4-.5-1.1-.5h-.8v-.7c1 .1 1.9.1 2.6.1.8 0 1.9 0 3.1-.1V3h-.8c-.7 0-1.1.2-1.1.7 0 .5-.1 1.9-.1 4.4V11c0 1 0 1.5.1 1.7 0 .1.1.2.2.4.1.1.5.1.8.1h.8v.7c-1.2-.1-2.2-.1-3.2-.1-.8 0-1.7 0-2.6.1V13h.8c.6 0 .9-.1 1-.5.1-.3.1-.9.1-1.7V8l-3.1-.1-2.8.1v3.7c0 .5 0 .8.1.9.1.1.1.2.4.3.2.1.4.1.7.1h.8v.7c-1.2-.1-2.3-.1-3.2-.1-.8 0-1.6 0-2.6.1V13h.8c.6 0 .9-.1 1-.5.1-.3.1-1.7.1-4.3 0-2.8-.1-4.3-.1-4.7-.1-.4-.4-.5-1-.5h-.8v-.7c1 .1 1.9.1 2.6.1.8 0 1.9 0 3.2-.1V3h-.8c-.2 0-.5.1-.7.1-.2.1-.3.2-.4.4-.1.1-.1.8-.1 1.9V7c1.1.1 2.3.1 3.9.1 1 0 1.7-.1 2.3-.1zm-10.8-4.7V3h-.8c-.7 0-1 .2-1 .7 0 .5-.1 1.9-.1 4.4V11c0 1 0 1.5.1 1.7 0 .1.1.2.2.4.1.1.5.1.8.1h.8v.7c-1.2-.1-2.2-.1-3.2-.1-.8 0-1.6 0-2.6.1V13h.8c.5 0 .8-.1.9-.3.1-.2.1-.8.1-1.9V5.5c0-.8.1-1.4.1-1.9-.3.5-.5.8-.8 1.3-.4.5-.7 1-1 1.4l-2.6 4.1c-1.1 1.7-1.8 2.8-2.3 3.4-.2 0-.8.1-1.7.3.1-1.8.1-3.5.1-5.1 0-3.3 0-5.1-.1-5.4-.1-.3-.4-.5-1.1-.5h-.8v-.8c1 .1 1.9.1 2.6.1.8 0 1.9 0 3.2-.1V3h-.8c-.2 0-.4.1-.7.1-.2.1-.4.2-.4.4 0 .1-.1.8-.1 1.9v5.1c0 .5 0 1-.1 1.4.3-.3 1-1.3 2.1-3.1l1.7-2.6c.3-.5 1.1-1.8 2.3-3.9.7.1 1.1.1 1.6.1.6 0 1.4 0 2.8-.1zm-14.6 0V3h-.8c-.7 0-1.1.2-1.1.6 0 .5-.1 1.9-.1 4.3v2.9c0 1 0 1.5.1 1.6 0 .1.1.2.2.4.1.1.5.1.8.1h.8v.7c-1.2-.1-2.2-.1-3.2-.1-.8 0-1.7 0-2.6.1V13h.8c.5 0 .8-.1 1-.4.1-.2.1-1.3.1-3.1V3.1c-.6-.1-1.5-.1-2.7-.1-.5 0-1 0-1.8.1 0 3.5-.1 5.9-.3 7-.2 1.1-.6 2.1-1.3 2.7-.7.6-1.3 1-1.9 1-.2 0-.5-.1-.9-.1v-1.8l.2-.1c.3.5.7.6 1.1.6.7 0 1.2-.5 1.5-1.4.3-.9.5-2.9.5-5.9 0-.8-.1-1.4-.1-1.7-.1-.3-.4-.4-1-.4h-.8v-.7c1.1.1 2.1.1 2.8.1h5.2c1.1 0 2.2 0 3.5-.1zm-20.9 5.3v1.5c0 2 .1 3.2.1 3.4.1.2.5.4 1.1.4h.7v.7h-.6c-1.1-.1-1.8-.1-2.2-.1-.1 0-1 0-3 .1v-.7h.7c.7 0 1-.1 1.1-.5.1-.3.1-1.4.1-3.3V5.6c0-1.3-.1-2-.1-2.2-.1-.3-.5-.4-1-.4h-.8v-.7c1 .1 1.9.1 2.6.1 1.2 0 2.2 0 3.2-.1V3h-.8c-.2 0-.5.1-.7.1-.2.1-.3.2-.4.4 0 .1-.1.9-.1 2.2V7l.1.1c1-.8 2.2-1.8 3.5-3.2l1.6-1.6h2.2V3h-.4c-.3 0-.8.2-1.4.7-.7.5-1.9 1.4-3.6 3 1.2 1.1 2.7 2.9 4.5 5.1.6.8 1.2 1.1 1.6 1.1v.7h-.5c-.5-.1-.9-.1-1-.1-.1 0-.6 0-1.4.1-2-2.7-3.8-4.7-5.2-6h-.2zm70.8 37.2c-1.1-.1-2.1-.1-2.9-.1-.4 0-1.6.1-3.4.1v-1.5c.9 0 2-.7 3.1-1.9 3.2-3.4 6.2-6.4 9.1-9.1-3.4-.1-5.8-.8-7.1-1.7-1.4-1-2-2.4-2-4.3s.8-3.5 2.2-4.7c1.4-1.3 3.6-1.9 6.4-1.9 1.4 0 2.9.1 4.9.1 2.1.1 3.6.2 4.5.2.6 0 2.6-.1 6-.1v1.5h-1.9c-.8 0-1.4.1-1.8.4-.4.2-.5.5-.6.8-.1.3-.1 1.7-.1 4.1-.1 2.4-.1 4.4-.1 6v4.9c0 3 .1 4.7.1 4.9.1.3.4.5.8.7.4.1 1 .3 1.6.3h1.9V45c-.1 0-.5 0-1.4-.1-2.2-.1-3.7-.1-4.4-.1l-7.1.1v-1.5h1.5c1.2 0 1.9-.3 2.2-.9.3-.6.5-2.9.5-7v-3h-.7c-2.8 2.5-6.5 6.7-11.3 12.3zM185 30.7v-2.9c0-2.7-.1-4.7-.1-6.2-1.6-.2-2.9-.4-4-.4-1.6 0-2.9.4-4.1 1.2-1.1.8-1.7 2.1-1.7 3.9 0 3.2 2.2 4.8 6.5 4.8 1.3-.1 2.4-.2 3.4-.4zm-40.5-6 3.7-3.3c.9-.8 1.7-1.4 2.3-1.6 1.1-.3 2.3-.5 3.6-.5 3.1 0 5.5 1 7.5 2.9 1.9 2 2.8 4.4 2.8 7.5 0 1.5-.2 3-.7 4.5-.5 1.5-1 2.7-1.6 3.7-.6 1-1.4 1.7-2.1 2.3-.2.2-1.4.9-3.2 2.1l-1.1.8c-1.4.9-2.4 1.6-3.2 1.8-.8.3-1.7.5-2.8.5-.8 0-1.6-.1-2.5-.4-.9-.2-1.9-.6-2.9-1.1v3.8c0 3.8.1 6.5.1 8.1.1.7.3 1.2.7 1.5.4.3 1.2.5 2.4.5h1.4v1.5c-3.3-.1-5.7-.1-7.2-.1-1.7 0-3.8.1-6.4.1v-1.5h1.9c1.4 0 2.1-.3 2.4-.9.2-.6.4-3.7.4-9.3V31.4c0-2.8-.1-4.9-.2-6.5-.1-.8-.2-1.2-.5-1.5-.3-.2-.9-.4-1.9-.4h-2v-1.7c2.4-.3 4.8-.8 7.1-1.5l1.6-.6c.3 0 .5.2.5.8l-.1 2.8zm0 14.4c1.1 1.3 2.2 2.2 3.3 2.7 1.1.5 2.3.8 3.6.8 2.8 0 4.9-1.1 6.3-3.2 1.4-2.1 2.2-4.6 2.2-7.4 0-1.9-.3-3.6-1-4.9-.7-1.4-1.6-2.5-2.9-3.2-1.3-.8-2.6-1.2-4.1-1.2-1.1 0-2 .2-3.1.6-1 .5-1.9 1-2.6 1.7-.8.8-1.2 1.4-1.4 2.1-.1.5-.2 1.7-.2 3.8zM98 44.8v-1.2c1.3-.5 1.9-1 2.1-1.6.1-.5.2-3.7.2-9.3 0-6.2-.1-9.7-.2-10.3-.1-.7-1-1.1-2.3-1.1h-1.9v-1.5c2.3.1 4.4.1 6.1.1 1.9 0 4.3-.1 7.2-.1v1.5h-1.9c-1.5 0-2.3.5-2.4 1.4-.1.9-.1 3.1-.1 6.5v1c1.8 0 3.1-.1 3.8-.1 3.6 0 6.4.5 8.4 1.7 2 1.1 3 2.8 3 4.9 0 2.5-1.2 4.4-3.7 5.8-2.5 1.4-5.5 2-9.1 2h-5.9l-1.1.1c-1 .2-1.6.2-2.2.2zm6.8-12.8v6c0 2 .1 3.6.1 4.9.8.1 1.6.1 2.1.1 5.5 0 8.2-1.9 8.2-5.7 0-1.9-.7-3.2-2.1-4.1-1.4-.9-3.2-1.4-5.6-1.4zm15.4-10.6v-1.5c2.3.1 4.4.1 6.1.1 1.9 0 4.3-.1 7.2-.1v1.5h-1.9c-1.6 0-2.4.5-2.5 1.4-.1.9-.1 4.2-.1 9.8v4.7c0 3.1.1 4.8.1 5.1.1.3.4.5.8.8.5.2 1 .3 1.6.3h1.9V45c-2.8-.1-5.2-.1-7.2-.1-1.8 0-3.8.1-6.1.1v-1.5h1.9c1.4 0 2.2-.4 2.3-1.1.1-.7.2-4.1.2-10.2 0-5.8-.1-9-.2-9.7-.1-.7-1-1-2.3-1zm-29.4-16h1.5c-.1 2.3-1 4.1-2.9 5.2-1.7 1.2-3.6 1.7-5.6 1.7-.8 0-1.9-.1-3.3-.3-1.1-.1-2.2-.2-3.1-.2-1.8 0-3.4.7-4.7 2-1.3 1.3-2.2 3.4-2.5 6.1-.4 2.7-.5 4.4-.5 4.9s.1 1.3.1 2.2c2.2-5.2 6-7.9 11.5-7.9 3.1 0 5.9 1 8.3 3 2.4 2 3.7 5.1 3.7 9.2 0 4.2-1.4 7.6-4.1 10-2.7 2.6-5.9 3.8-9.6 3.8-3.6 0-6.5-1.2-8.7-3.7-2.2-2.5-3.2-6.9-3.2-13.2 0-2.8.2-5.9.6-9.2.4-3.4 1-5.8 1.7-7.4.8-1.5 1.9-2.7 3.4-3.6 1.5-.9 3.1-1 5.1-1 1.3 0 2.6.1 4.1.4 1.8.3 3.2.5 4.1.5 2-.1 3.3-.9 4.1-2.5zM79.9 21.1c-2.2 0-4 .8-5.2 2.3-1.4 1.6-2 4-2 7.1 0 3.3.8 6.2 2.2 8.9 1.5 2.6 3.6 3.9 6.4 3.9 2.1 0 3.8-.8 5.1-2.5 1.3-1.7 1.9-4.1 1.9-7.4 0-3.8-.8-6.8-2.2-9.1-1.5-2-3.5-3.2-6.2-3.2zM37.7 32.2c0-2.4.5-4.7 1.6-6.6 1.1-2 2.7-3.5 4.7-4.6 2-1.1 4.3-1.6 6.8-1.6 3.7 0 6.7 1.1 8.9 3.3 2.2 2.2 3.3 5.2 3.3 8.9 0 4.3-1.4 7.8-4.3 10.4-2.4 2.3-5.5 3.5-9.2 3.5-3.5 0-6.3-1.2-8.5-3.5-2.1-2.5-3.3-5.7-3.3-9.8zm5-1.8c0 3.6.8 6.8 2.2 9.3 1.5 2.6 3.6 3.9 6.4 3.9 2.1 0 3.8-.8 5.1-2.4 1.3-1.6 2-4.1 2-7.4 0-2.6-.4-4.9-1.1-6.9-.8-2-1.8-3.4-3-4.3-1.3-.9-2.6-1.4-4.2-1.4-1.4 0-2.6.4-3.7 1.1-1.1.7-2 1.6-2.4 2.9-1 1.5-1.3 3.3-1.3 5.2zm-31-25.8c-.1 2.9-.2 6.5-.2 11v4h6.2c10.7 0 16.1 3.7 16.1 11.1 0 4.1-1.7 7.4-4.9 10.1-3.3 2.7-7.4 4.1-12 4.1-.5 0-1.3 0-2.4-.1-2-.1-3.6-.1-4.7-.1-1.2 0-2.5.1-4.1.1-1.1.1-2 .1-2.5.1v-1.4c1.3-.6 1.9-1.1 2.2-1.4.2-.3.4-1.3.5-2.8.1-1.6.1-3.9.1-7v-19c0-4.1-.1-6.8-.4-8C5.2 4.1 4.1 3.5 2 3.5H0V1.7h2.5c.5 0 1.4 0 2.8.1H9c.9 0 2.4 0 4.5-.1 5.6-.1 9.8-.1 12.4-.1 1.9 0 3.6.1 5 .3-.7 2-1 5-1.1 9.2h-2c-.1-2.2-.4-4.1-.8-5.7-2.5-.8-5.4-1.1-8.4-1.1-2.2-.1-4.6.1-6.9.3zm-.1 37.2c1.6.3 3.2.5 4.5.5 3.5 0 6.3-1 8.2-2.9 2-2 2.9-4.5 2.9-7.8 0-1.6-.3-3.2-.9-4.6-.6-1.5-1.6-2.7-3.2-3.6-1.6-.9-4.3-1.4-8-1.4-1.3 0-2.5 0-3.7.1v10.8c.1 4.2.1 7.2.2 8.9z"/>
  <path fill="url(#a)" d="m228.4.2-.1 44.5h10l2.3-1.6.4-42.9zm-3.7-.2-9.3.2.8 18.3-1.4 3.3-4.1 8.1.2 8.2 2.3 6.5 11.3-.2zm-28.1 0-.2 43.3 1.6 1.4 11 .4-.8-3v-15l1.4-5.5 3.1-3.2V0z"/>
</svg>
