<svg viewBox="0 0 244 165" fill="none" xmlns="http://www.w3.org/2000/svg" alt="Балетная студия АкТер" itemprop="logo">
<path d="M9.77857 88.772C6.86657 88.772 4.17857 86.756 4.17857 83.06C4.17857 79.412 6.57857 77.412 9.98657 77.028C11.5706 77.028 12.9306 77.604 13.7306 78.1V80.372H13.2506L12.5626 78.612C12.0346 78.084 11.2026 77.524 9.84257 77.524C7.55457 77.524 5.79457 79.3 5.79457 82.756C5.79457 85.492 7.21857 88.228 10.1786 88.228C11.1706 88.228 12.0026 87.7 12.4666 87.252L13.3466 85.268H13.8266L13.6186 87.62C12.5946 88.1 11.2026 88.58 9.77857 88.772ZM23.8316 88.484L21.4476 88.516L21.3996 88.18L23.1116 88.036V77.764H20.5676L19.7036 80.228H19.3516V77.284L23.8156 77.316L28.3116 77.284V80.228H27.9436L27.0796 77.764H24.5516V88.036L26.1996 88.18L26.1676 88.516L23.8316 88.484ZM43.0696 77.316L44.6376 77.284L44.6856 77.604L43.4056 77.716L40.0136 85.492L38.6216 88.564H36.6536V86.948H38.5896L39.4216 85.556L38.4456 85.892L34.7016 77.732L33.4536 77.604L33.5016 77.284L35.5976 77.316L37.6456 77.284L37.6776 77.604L36.3016 77.748L39.5016 84.996L39.5176 85.38L42.7336 77.748L41.3096 77.604L41.3576 77.284L43.0696 77.316ZM58.6081 77.62L57.2001 77.764V88.036L58.5281 88.164V91.396H58.1921L56.8961 88.5L50.1601 88.484L48.8321 91.396H48.4961V88.18L49.7601 88.036C50.4481 86.548 50.9281 85.396 51.1841 83.7C51.3921 82.164 51.6321 79.268 51.6641 77.764L49.8401 77.62L49.8721 77.284L54.1601 77.316L58.5601 77.284L58.6081 77.62ZM50.7201 88.004H55.7601V77.796H52.2561L51.7121 83.332C51.5521 85.06 51.2161 86.564 50.7201 88.004ZM75.4202 77.62L74.0122 77.764V88.036L75.4202 88.18L75.3722 88.516L73.3082 88.484L71.1962 88.516L71.1642 88.18L72.6042 88.036V79.22L67.0202 87.348V88.036L68.4442 88.18L68.4122 88.516L66.3162 88.484L64.2362 88.516L64.2042 88.18L65.6122 88.036V77.764L64.2042 77.62L64.2362 77.284L66.3162 77.316L68.4122 77.284L68.4442 77.62L67.0202 77.764V86.516L72.6042 78.404V77.764L71.1642 77.62L71.1962 77.284L73.3082 77.316L75.3722 77.284L75.4202 77.62ZM90.5647 77.62L89.1727 77.764V88.036L90.5647 88.18L90.5167 88.516L88.4527 88.484L86.4207 88.516L86.3727 88.18L87.7327 88.036V83.188L86.4687 83.3L86.4207 83.348L83.0607 88.516L82.1007 88.484L80.8207 88.516L80.7887 88.196L81.6367 88.036L84.5327 83.716L85.4607 83.332C83.5567 83.172 82.0847 82.132 82.0847 80.388C82.0847 78.548 83.4127 77.604 85.4127 77.284L88.4367 77.316L90.5167 77.284L90.5647 77.62ZM86.5807 82.804H87.7327V77.764L86.0687 77.684C84.6767 77.684 83.6527 78.692 83.6527 80.26C83.6527 81.668 84.5647 82.804 86.5807 82.804ZM104.837 88.484L102.661 88.516L102.629 88.18L104.053 88.036V77.764L102.629 77.62L102.661 77.284L104.789 77.316L110.453 77.284L110.533 80.164H110.213L109.269 77.764L105.493 77.748V82.148H108.005C109.989 82.132 111.461 83.076 111.461 84.98C111.461 87.156 109.605 88.084 107.669 88.516L104.837 88.484ZM105.493 87.988L107.157 88.084C108.805 88.068 109.925 86.82 109.925 85.14C109.925 83.668 109.221 82.628 107.461 82.628H105.493V87.988ZM117.653 88.484L116.117 88.516L116.085 88.18L117.349 88.052L121.269 77.492L122.085 77.14L126.101 88.052L127.349 88.18L127.317 88.516L125.221 88.484L123.157 88.516L123.109 88.196L124.501 88.036L123.285 84.564H119.253L118.037 88.036L119.445 88.196L119.413 88.516L117.653 88.484ZM121.333 78.66L119.413 84.1H123.125L121.381 79.092L121.333 78.66ZM134.093 88.58H132.189V86.9H133.453C134.077 85.972 134.445 85.028 134.653 83.732C134.925 82.02 135.213 79.06 135.229 77.764L133.373 77.62L133.421 77.284L137.885 77.316L142.013 77.284L142.045 77.62L140.653 77.764V88.036L142.093 88.18L142.061 88.516L139.949 88.484L137.821 88.516L137.773 88.18L139.213 88.036V77.796H135.821L135.245 83.396C135.053 85.236 134.733 87.044 134.093 88.58ZM149.854 88.484L147.726 88.516L147.694 88.18L149.118 88.036V77.764L147.694 77.62L147.726 77.284L149.854 77.316L156.238 77.284L156.318 80.148H156.014L155.07 77.764L150.558 77.748V82.436L153.118 82.404L153.774 80.628H154.078L153.998 82.596L154.078 84.628H153.774L153.118 82.868L150.558 82.836V88.052L155.214 88.036L156.254 85.588H156.59L156.302 88.516L149.854 88.484ZM166.366 88.484L163.982 88.516L163.934 88.18L165.646 88.036V77.764H163.102L162.238 80.228H161.886V77.284L166.35 77.316L170.846 77.284V80.228H170.478L169.614 77.764H167.086V88.036L168.734 88.18L168.702 88.516L166.366 88.484ZM175.932 88.484L174.396 88.516L174.364 88.18L175.628 88.052L179.548 77.492L180.364 77.14L184.38 88.052L185.628 88.18L185.596 88.516L183.5 88.484L181.436 88.516L181.388 88.196L182.78 88.036L181.564 84.564H177.532L176.316 88.036L177.724 88.196L177.692 88.516L175.932 88.484ZM179.612 78.66L177.692 84.1H181.404L179.66 79.092L179.612 78.66Z" fill="#C9AA98"/>
<path d="M51.0088 0.723997L56.1928 67.54L64.7368 68.02L64.6408 68.5H41.1208L41.2168 68.02L49.8568 67.54L48.1288 44.212H24.3208L11.3608 67.54L19.9048 68.02L19.8088 68.5H0.70475L0.80075 68.02L9.44075 67.54L46.1128 1.972L51.0088 0.723997ZM45.2488 6.58L24.8968 43.252H48.0328L45.2488 6.58ZM107.278 60.628L96.6215 69.94L92.9735 68.5L85.6775 44.5H82.4135L78.0935 68.5H72.7175L80.1095 26.356L70.9895 29.812L70.7975 29.332L85.6775 22.9L86.0615 23.188L82.4135 43.732H85.6775L101.038 23.86H107.854L106.702 30.58H99.1175H97.1975L86.4455 44.02L91.9175 45.844L98.7335 66.772L106.99 60.244L107.278 60.628ZM123.289 68.5V68.02L132.121 67.54V2.25999H115.609L109.753 19.636H109.273V1.3H161.689V19.636H161.208L155.353 2.25999H138.841V67.54L147.673 68.02V68.5H123.289ZM191.923 60.436L192.211 60.724C186.739 64.948 183.187 67.348 177.043 69.94C166.387 69.94 155.923 62.74 155.923 48.052C155.923 33.076 165.043 25.396 175.795 22.9C187.795 22.9 191.539 30.388 191.539 40.18V42.196H161.587C161.491 42.964 161.491 43.828 161.491 44.692C161.491 57.556 169.171 65.14 179.443 65.14C183.667 65.14 188.179 62.932 191.923 60.436ZM173.971 24.916C166.387 24.916 162.259 31.06 161.587 41.716H184.819C184.819 32.596 183.091 24.916 173.971 24.916ZM195.82 90.58V90.1L202.732 89.62V25.684L195.724 27.508L195.628 27.124L208.012 23.38H208.492V32.404L222.796 22.9C232.78 22.9 239.692 32.308 239.692 43.252C239.692 56.596 232.684 66.58 217.996 69.94C214.732 69.94 211.084 69.172 208.492 66.964V89.62L218.764 90.1V90.58H195.82ZM218.668 68.692C227.308 68.596 233.452 59.956 233.452 46.516C233.452 36.244 228.94 27.316 220.684 27.316C216.556 27.316 214.828 29.044 210.604 31.732L208.492 33.076V63.22C210.412 66.388 213.964 68.788 218.668 68.692Z" fill="#DECABD"/><defs>
<linearGradient id="paint0_linear_968_961" x1="104.5" y1="101.5" x2="54" y2="101.5" gradientUnits="userSpaceOnUse">
<stop stop-color="#AE8E7E"/>
<stop offset="1" stop-color="#AE8E7E" stop-opacity="0"/>
</linearGradient>
<linearGradient id="paint1_linear_968_961" x1="-0.5" y1="-1.44564e-09" x2="51.5" y2="1.70138e-07" gradientUnits="userSpaceOnUse">
<stop stop-color="#AE8E7E"/>
<stop offset="1" stop-color="#AE8E7E" stop-opacity="0"/>
</linearGradient>
</defs>
</svg>
