<svg xmlns="http://www.w3.org/2000/svg" fill="none" viewBox="0 0 244 165">
  <path fill="#C9AA98" d="M9.779 88.772c-2.912 0-5.6-2.016-5.6-5.712 0-3.648 2.4-5.648 5.808-6.032 1.584 0 2.944.576 3.744 1.072v2.272h-.48l-.688-1.76c-.528-.528-1.36-1.088-2.72-1.088-2.288 0-4.048 1.776-4.048 5.232 0 2.736 1.424 5.472 4.384 5.472.992 0 1.824-.528 2.288-.976l.88-1.984h.48l-.208 2.352c-1.024.48-2.416.96-3.84 1.152Zm14.053-.288-2.384.032-.048-.336 1.712-.144V77.764h-2.544l-.864 2.464h-.352v-2.944l4.464.032 4.496-.032v2.944h-.368l-.864-2.464h-2.528v10.272l1.648.144-.032.336-2.336-.032ZM43.07 77.316l1.568-.032.048.32-1.28.112-3.392 7.776-1.392 3.072h-1.968v-1.616h1.936l.832-1.392-.976.336-3.744-8.16-1.248-.128.048-.32 2.096.032 2.048-.032.032.32-1.376.144 3.2 7.248.016.384 3.216-7.632-1.424-.144.048-.32 1.712.032Zm15.538.304-1.408.144v10.272l1.328.128v3.232h-.336L56.896 88.5l-6.736-.016-1.328 2.912h-.336V88.18l1.264-.144c.688-1.488 1.168-2.64 1.424-4.336.208-1.536.448-4.432.48-5.936l-1.824-.144.032-.336 4.288.032 4.4-.032.048.336ZM50.72 88.004h5.04V77.796h-3.504l-.544 5.536a19.624 19.624 0 0 1-.992 4.672Zm24.7-10.384-1.408.144v10.272l1.408.144-.048.336-2.064-.032-2.112.032-.032-.336 1.44-.144V79.22l-5.584 8.128v.688l1.424.144-.032.336-2.096-.032-2.08.032-.032-.336 1.408-.144V77.764l-1.408-.144.032-.336 2.08.032 2.096-.032.032.336-1.424.144v8.752l5.584-8.112v-.64l-1.44-.144.032-.336 2.112.032 2.064-.032.048.336Zm15.145 0-1.392.144v10.272l1.392.144-.048.336-2.064-.032-2.032.032-.048-.336 1.36-.144v-4.848l-1.264.112-.048.048-3.36 5.168-.96-.032-1.28.032-.032-.32.848-.16 2.896-4.32.928-.384c-1.904-.16-3.376-1.2-3.376-2.944 0-1.84 1.328-2.784 3.328-3.104l3.024.032 2.08-.032.048.336Zm-3.984 5.184h1.152v-5.04l-1.664-.08c-1.392 0-2.416 1.008-2.416 2.576 0 1.408.912 2.544 2.928 2.544Zm18.256 5.68-2.176.032-.032-.336 1.424-.144V77.764l-1.424-.144.032-.336 2.128.032 5.664-.032.08 2.88h-.32l-.944-2.4-3.776-.016v4.4h2.512c1.984-.016 3.456.928 3.456 2.832 0 2.176-1.856 3.104-3.792 3.536l-2.832-.032Zm.656-.496 1.664.096c1.648-.016 2.768-1.264 2.768-2.944 0-1.472-.704-2.512-2.464-2.512h-1.968v5.36Zm12.16.496-1.536.032-.032-.336 1.264-.128 3.92-10.56.816-.352 4.016 10.912 1.248.128-.032.336-2.096-.032-2.064.032-.048-.32 1.392-.16-1.216-3.472h-4.032l-1.216 3.472 1.408.16-.032.32-1.76-.032Zm3.68-9.824-1.92 5.44h3.712l-1.744-5.008-.048-.432Zm12.76 9.92h-1.904V86.9h1.264c.624-.928.992-1.872 1.2-3.168.272-1.712.56-4.672.576-5.968l-1.856-.144.048-.336 4.464.032 4.128-.032.032.336-1.392.144v10.272l1.44.144-.032.336-2.112-.032-2.128.032-.048-.336 1.44-.144v-10.24h-3.392l-.576 5.6c-.192 1.84-.512 3.648-1.152 5.184Zm15.761-.096-2.128.032-.032-.336 1.424-.144V77.764l-1.424-.144.032-.336 2.128.032 6.384-.032.08 2.864h-.304l-.944-2.384-4.512-.016v4.688l2.56-.032.656-1.776h.304l-.08 1.968.08 2.032h-.304l-.656-1.76-2.56-.032v5.216l4.656-.016 1.04-2.448h.336l-.288 2.928-6.448-.032Zm16.512 0-2.384.032-.048-.336 1.712-.144V77.764h-2.544l-.864 2.464h-.352v-2.944l4.464.032 4.496-.032v2.944h-.368l-.864-2.464h-2.528v10.272l1.648.144-.032.336-2.336-.032Zm9.566 0-1.536.032-.032-.336 1.264-.128 3.92-10.56.816-.352 4.016 10.912 1.248.128-.032.336-2.096-.032-2.064.032-.048-.32 1.392-.16-1.216-3.472h-4.032l-1.216 3.472 1.408.16-.032.32-1.76-.032Zm3.68-9.824-1.92 5.44h3.712l-1.744-5.008-.048-.432Z"/>
  <path fill="#DECABD" d="m51.009.724 5.184 66.816 8.544.48-.096.48H41.12l.096-.48 8.64-.48-1.728-23.328H24.32L11.36 67.54l8.544.48-.096.48H.705l.096-.48 8.64-.48L46.113 1.972 51.009.724Zm-5.76 5.856L24.897 43.252h23.136L45.249 6.58Zm62.029 54.048L96.621 69.94l-3.647-1.44-7.297-24h-3.264l-4.32 24h-5.376l7.392-42.144-9.12 3.456-.192-.48 14.88-6.432.384.288-3.648 20.544h3.264l15.361-19.872h6.816l-1.152 6.72h-9.504L86.446 44.02l5.472 1.824 6.816 20.928 8.256-6.528.288.384Zm16.011 7.872v-.48l8.832-.48V2.26h-16.512l-5.856 17.376h-.48V1.3h52.416v18.336h-.481L155.353 2.26h-16.512v65.28l8.832.48v.48h-24.384Zm68.634-8.064.288.288c-5.472 4.224-9.024 6.624-15.168 9.216-10.656 0-21.12-7.2-21.12-21.888 0-14.976 9.12-22.656 19.872-25.152 12 0 15.744 7.488 15.744 17.28v2.016h-29.952c-.096.768-.096 1.632-.096 2.496 0 12.864 7.68 20.448 17.952 20.448 4.224 0 8.736-2.208 12.48-4.704Zm-17.952-35.52c-7.584 0-11.712 6.144-12.384 16.8h23.232c0-9.12-1.728-16.8-10.848-16.8ZM195.82 90.58v-.48l6.912-.48V25.684l-7.008 1.824-.096-.384 12.384-3.744h.48v9.024l14.304-9.504c9.984 0 16.896 9.408 16.896 20.352 0 13.344-7.008 23.328-21.696 26.688-3.264 0-6.912-.768-9.504-2.976V89.62l10.272.48v.48H195.82Zm22.848-21.888c8.64-.096 14.784-8.736 14.784-22.176 0-10.272-4.512-19.2-12.768-19.2-4.128 0-5.856 1.728-10.08 4.416l-2.112 1.344V63.22c1.92 3.168 5.472 5.568 10.176 5.472Z"/>
  <path stroke="url(#a)" stroke-width=".35" d="M105.5 101.675H3"/>
  <path fill="#573E3E" d="m120.235 105.31-1.638 1.4-.588-.35.868-4.816c.112-.658-.084-1.036-.672-1.036-.392 0-.784.224-1.47.686l-.574.392-.868 4.914h-.784l1.078-6.146-1.33.504-.028-.07 2.17-.938.056.042-.28 1.596 2.324-1.638c.994 0 1.358.546 1.218 1.344l-.91 5.11 1.386-1.036.042.042Zm1.357 4.41h-.784l1.638-9.366-1.33.504-.028-.07 2.17-.938.056.042-.28 1.61 1.89-1.652c.938.112 1.708.882 1.708 2.394 0 1.54-.784 3.108-2.296 3.864l-1.218.602c-.364-.042-.686-.224-.938-.364l-.588 3.374Zm2.226-3.472c1.666-.714 1.974-2.156 1.974-3.486s-.588-2.072-1.414-2.254l-1.372 1.134-.686 3.948c.448.462 1.134.644 1.498.658Zm7.405-1.204-2.282 1.666c-.994 0-1.344-.504-1.204-1.302l.91-5.124-1.33.448-.028-.07 2.156-.812.056.042-.938 5.278c-.112.658.126.882.532.882.434 0 .756-.154 1.582-.728l.56-.392.854-4.872h.798l-1.092 6.244 1.456-.966.042.042-1.82 1.33-.476-.35.224-1.316Z"/>
  <path fill="#AE8E7E" d="m120.235 105.31-1.638 1.4-.588-.35.868-4.816c.112-.658-.084-1.036-.672-1.036-.392 0-.784.224-1.47.686l-.574.392-.868 4.914h-.784l1.078-6.146-1.33.504-.028-.07 2.17-.938.056.042-.28 1.596 2.324-1.638c.994 0 1.358.546 1.218 1.344l-.91 5.11 1.386-1.036.042.042Zm1.357 4.41h-.784l1.638-9.366-1.33.504-.028-.07 2.17-.938.056.042-.28 1.61 1.89-1.652c.938.112 1.708.882 1.708 2.394 0 1.54-.784 3.108-2.296 3.864l-1.218.602c-.364-.042-.686-.224-.938-.364l-.588 3.374Zm2.226-3.472c1.666-.714 1.974-2.156 1.974-3.486s-.588-2.072-1.414-2.254l-1.372 1.134-.686 3.948c.448.462 1.134.644 1.498.658Zm7.405-1.204-2.282 1.666c-.994 0-1.344-.504-1.204-1.302l.91-5.124-1.33.448-.028-.07 2.156-.812.056.042-.938 5.278c-.112.658.126.882.532.882.434 0 .756-.154 1.582-.728l.56-.392.854-4.872h.798l-1.092 6.244 1.456-.966.042.042-1.82 1.33-.476-.35.224-1.316Z"/>
  <path stroke="url(#b)" stroke-width=".35" d="M0-.175h102.5" transform="matrix(1 0 0 -1 141.5 101.5)"/>
  <path fill="#DECABD" d="m21.776 124.486-1.862.028-.028-.294 1.246-.126v-8.988l-1.246-.126.028-.294 1.862.028 5.026-.028.056 2.52h-.266l-.826-2.1-3.374-.014v9.002l1.526.126-.028.294-2.114-.028Zm7.749.224c-1.806 0-3.024-1.428-3.024-3.318 0-2.086 1.232-3.22 3.346-3.612 1.806 0 3.024 1.428 3.024 3.318 0 2.072-1.232 3.234-3.346 3.612Zm.35-.462c1.19 0 1.806-1.246 1.806-2.856 0-1.89-.91-3.136-2.184-3.136-1.204 0-1.806 1.204-1.806 2.842 0 1.694.868 3.15 2.184 3.15Zm7.153.462c-1.75 0-3.066-1.176-3.066-3.276 0-2.226 1.61-3.332 3.262-3.654.588 0 1.442.35 1.862.7v1.246h-.882l-.462-1.288a1.34 1.34 0 0 0-.728-.182c-1.064 0-1.918.938-1.918 2.674 0 1.624.882 2.884 2.296 2.884.588 0 1.162-.266 1.694-.658l.126.294a8.335 8.335 0 0 1-2.184 1.26Zm5.376 3.08h-1.456v-1.218h1.232l1.414-2.422-.658.294-2.296-6.076-.854-.112.042-.28 1.498.028 1.414-.028.028.28-.882.112 1.778 4.886.056.476 1.848-5.362-1.022-.112.028-.28 1.358.028 1.092-.028.042.28-.91.112-2.142 5.782-1.61 3.64Zm10.134-9.436v5.74l1.05.126v2.38h-.308l-.938-2.1-2.38-.014-1.988.014-.924 2.1h-.294v-2.38l.868-.098c.49-.938.84-1.89.994-2.674.182-.868.294-2.142.294-3.094l-1.008-.098.028-.28 2.618.014 2.968-.014.028.28-1.008.098Zm-4.284 5.782 3.164-.014v-5.74h-2.016l-.35 2.688c-.126 1.036-.42 2.058-.798 3.066Zm9.967-.714-1.806 1.288c-1.148 0-1.918-.63-1.918-1.694 0-.476.154-.882.602-1.344l3.08-1.022v-.742c0-.84-.042-1.47-1.106-1.47-.35 0-.672.084-1.064.21l-.294 1.246h-1.008v-.98l2.464-1.134c1.792 0 2.128.602 2.128 2.156v2.898c0 .546.098.854.252 1.176l.742-.056.042.28-1.764.336-.35-1.148Zm-1.638.462c.42 0 .826-.252 1.064-.42l.532-.364v-2.128l-2.058.812c-.294.266-.476.588-.476 1.022 0 .728.434 1.078.938 1.078Zm5.832 3.822-1.554.028-.028-.294.98-.098v-8.834l-.994.168-.042-.266 1.764-.49.336-.014.042 1.232 1.918-1.358c1.666 0 2.674 1.288 2.674 3.136 0 2.156-1.218 3.402-3.318 3.794-.434 0-.91-.112-1.26-.378v3.01l1.47.098-.042.294-1.946-.028Zm2.002-3.444c1.134-.014 1.904-1.134 1.904-2.884 0-1.568-.616-2.744-1.638-2.744-.476 0-.826.252-1.386.644l-.364.252v3.962c.294.462.84.77 1.484.77Zm7.249.448c-1.75 0-3.066-1.176-3.066-3.276 0-2.226 1.61-3.332 3.262-3.654.588 0 1.442.35 1.862.7v1.246h-.882l-.462-1.288a1.34 1.34 0 0 0-.728-.182c-1.064 0-1.918.938-1.918 2.674 0 1.624.882 2.884 2.296 2.884.588 0 1.162-.266 1.694-.658l.126.294a8.335 8.335 0 0 1-2.184 1.26Zm5.963-.224-1.526.028-.041-.294.98-.098v-5.796l-1.484.014-.715 2.03h-.28v-2.394h6.076v2.394h-.28l-.713-2.03-1.484-.014v5.796l1.021.098-.042.294-1.512-.028Zm5.353 0-1.526.028-.028-.294.966-.098v-5.768l-.966-.098.028-.28 1.526.014 2.1-.028c1.442-.028 2.072.686 2.072 1.414 0 .91-.924 1.498-1.918 1.624 1.484.042 2.212.742 2.212 1.61 0 1.246-1.12 1.778-2.744 1.904l-1.722-.028Zm.532-6.146v2.562l1.148-.028c.826-.028 1.316-.602 1.316-1.442 0-.686-.42-1.134-1.218-1.134l-1.246.042Zm0 5.796 1.008.042c1.316 0 1.736-.756 1.736-1.54 0-.868-.588-1.414-1.47-1.414l-1.274.014v2.898Zm10.465-.952.14.294a9.174 9.174 0 0 1-2.352 1.232c-1.624 0-3.15-1.134-3.15-3.304 0-2.156 1.33-3.262 3.052-3.626 1.778 0 2.394 1.106 2.394 2.576v.448h-4.34v.028c0 1.862.966 2.968 2.492 2.968.574 0 1.232-.28 1.764-.616Zm-2.59-4.914c-.952 0-1.568.812-1.652 2.198l3.066-.07v-.028c0-1.19-.224-2.1-1.414-2.1Zm10.888-.014-1.022.098v5.768l1.022.098-.042.294-1.54-.028-1.386.028-.042-.294.868-.098v-2.87h-3.052v2.87l.84.098-.042.294-1.358-.028-1.54.028-.028-.294 1.008-.098v-5.768l-1.008-.098.028-.28 1.54.014 1.358-.014.042.28-.84.098v2.548h3.052v-2.548l-.868-.098.042-.28 1.386.014 1.54-.014.042.28Zm8.308 0-1.022.098v5.768l1.022.098-.042.294-1.54-.028-1.386.028-.042-.294.868-.098v-2.87h-3.052v2.87l.84.098-.042.294-1.358-.028-1.54.028-.028-.294 1.008-.098v-5.768l-1.008-.098.028-.28 1.54.014 1.358-.014.042.28-.84.098v2.548h3.052v-2.548l-.868-.098.042-.28 1.386.014 1.54-.014.042.28Zm3.807 6.454c-1.806 0-3.024-1.428-3.024-3.318 0-2.086 1.232-3.22 3.346-3.612 1.806 0 3.024 1.428 3.024 3.318 0 2.072-1.232 3.234-3.346 3.612Zm.35-.462c1.19 0 1.806-1.246 1.806-2.856 0-1.89-.91-3.136-2.184-3.136-1.204 0-1.806 1.204-1.806 2.842 0 1.694.868 3.15 2.184 3.15Zm8.123.266h-.476l-2.282-5.558-.168-.56v5.726l.896.098-.042.294-1.064-.028-1.12.028-.028-.294.966-.098v-5.782l-.966-.098.028-.28 1.19.014 1.064-.014 2.058 5.068.028.392 2.156-5.46.742.014 1.428-.014.042.28-.98.098v5.782l.98.098-.042.294-1.526-.028-1.344.028-.042-.294.882-.098v-5.166l.07-.602-2.45 6.16Zm12.694-1.092-1.806 1.288c-1.148 0-1.918-.63-1.918-1.694 0-.476.154-.882.602-1.344l3.08-1.022v-.742c0-.84-.042-1.47-1.106-1.47-.35 0-.672.084-1.064.21l-.294 1.246h-1.008v-.98l2.464-1.134c1.792 0 2.128.602 2.128 2.156v2.898c0 .546.098.854.252 1.176l.742-.056.042.28-1.764.336-.35-1.148Zm-1.638.462c.42 0 .826-.252 1.064-.42l.532-.364v-2.128l-2.058.812c-.294.266-.476.588-.476 1.022 0 .728.434 1.078.938 1.078Zm5.986.602-1.554.028-.028-.294.966-.098v-5.768l-.966-.098.028-.28 1.526.014 1.372-.014.042.28-.882.098v2.59l.196-.084 2.59-2.492-.672-.112v-.28l1.106.028 1.05-.028.042.28-.882.112-2.786 2.548.546.028 2.688 3.178.728.098-.028.294-1.134-.028-.756.028-2.604-3.248-.084-.154v3.01l.882.098-.028.294-1.358-.028Zm9.48-1.064-1.806 1.288c-1.148 0-1.918-.63-1.918-1.694 0-.476.154-.882.602-1.344l3.08-1.022v-.742c0-.84-.042-1.47-1.106-1.47-.35 0-.672.084-1.064.21l-.294 1.246h-1.008v-.98l2.464-1.134c1.792 0 2.128.602 2.128 2.156v2.898c0 .546.098.854.252 1.176l.742-.056.042.28-1.764.336-.35-1.148Zm-1.638.462c.42 0 .826-.252 1.064-.42l.532-.364v-2.128l-2.058.812c-.294.266-.476.588-.476 1.022 0 .728.434 1.078.938 1.078Zm10.042-5.53v5.74l1.05.126v2.38h-.308l-.938-2.1-2.38-.014-1.988.014-.924 2.1h-.294v-2.38l.868-.098c.49-.938.84-1.89.994-2.674.182-.868.294-2.142.294-3.094l-1.008-.098.028-.28 2.618.014 2.968-.014.028.28-1.008.098Zm-4.284 5.782 3.164-.014v-5.74h-2.016l-.35 2.688c-.126 1.036-.42 2.058-.798 3.066Zm11.402-.952.14.294a9.174 9.174 0 0 1-2.352 1.232c-1.624 0-3.15-1.134-3.15-3.304 0-2.156 1.33-3.262 3.052-3.626 1.778 0 2.394 1.106 2.394 2.576v.448h-4.34v.028c0 1.862.966 2.968 2.492 2.968.574 0 1.232-.28 1.764-.616Zm-2.59-4.914c-.952 0-1.568.812-1.652 2.198l3.066-.07v-.028c0-1.19-.224-2.1-1.414-2.1Zm7.85 6.244h-.476l-2.282-5.558-.168-.56v5.726l.896.098-.042.294-1.064-.028-1.12.028-.028-.294.966-.098v-5.782l-.966-.098.028-.28 1.19.014 1.064-.014 2.058 5.068.028.392 2.156-5.46.742.014 1.428-.014.042.28-.98.098v5.782l.98.098-.042.294-1.526-.028-1.344.028-.042-.294.882-.098v-5.166l.07-.602-2.45 6.16Zm12.852-6.258-1.008.098v5.768l1.008.098-.028.294-1.54-.028-1.372.028-.042-.294.882-.098v-4.872l-3.206 4.382v.49l.84.098-.028.294-1.344-.028-1.54.028-.028-.294 1.008-.098v-5.768l-1.008-.098.028-.28 1.54.014 1.344-.014.028.28-.84.098v4.718l3.206-4.382v-.336l-.882-.098.042-.28 1.372.014 1.54-.014.028.28Zm7.69 0-1.008.098v5.768l1.008.098-.042.294-1.498-.028-1.806.028-.042-.294 1.26-.098v-2.534l-2.17.616c-1.246 0-1.736-.574-1.736-1.596v-2.254l-.98-.098.042-.28 1.526.014 1.26-.014.042.28-.77.098v2.142c0 .686.364 1.036 1.106 1.036.532 0 1.008-.084 1.68-.308v-2.87l-.84-.098.042-.28 1.358.014 1.526-.014.042.28Zm6.146 4.928.14.294a9.174 9.174 0 0 1-2.352 1.232c-1.624 0-3.15-1.134-3.15-3.304 0-2.156 1.33-3.262 3.052-3.626 1.778 0 2.394 1.106 2.394 2.576v.448h-4.34v.028c0 1.862.966 2.968 2.492 2.968.574 0 1.232-.28 1.764-.616Zm-2.59-4.914c-.952 0-1.568.812-1.652 2.198l3.066-.07v-.028c0-1.19-.224-2.1-1.414-2.1Zm6.88 6.44c-1.75 0-3.066-1.176-3.066-3.276 0-2.226 1.61-3.332 3.262-3.654.588 0 1.442.35 1.862.7v1.246h-.882l-.462-1.288a1.34 1.34 0 0 0-.728-.182c-1.064 0-1.918.938-1.918 2.674 0 1.624.882 2.884 2.296 2.884.588 0 1.162-.266 1.694-.658l.126.294a8.335 8.335 0 0 1-2.184 1.26Zm4.69-.224-1.554.028-.028-.294.966-.098v-5.768l-.966-.098.028-.28 1.526.014 1.372-.014.042.28-.882.098v2.59l.196-.084 2.59-2.492-.672-.112v-.28l1.106.028 1.05-.028.042.28-.882.112-2.786 2.548.546.028 2.688 3.178.728.098-.028.294-1.134-.028-.756.028-2.604-3.248-.084-.154v3.01l.882.098-.028.294-1.358-.028Zm8.426.224c-1.806 0-3.024-1.428-3.024-3.318 0-2.086 1.232-3.22 3.346-3.612 1.806 0 3.024 1.428 3.024 3.318 0 2.072-1.232 3.234-3.346 3.612Zm.35-.462c1.19 0 1.806-1.246 1.806-2.856 0-1.89-.91-3.136-2.184-3.136-1.204 0-1.806 1.204-1.806 2.842 0 1.694.868 3.15 2.184 3.15Zm8.123.266h-.476l-2.282-5.558-.168-.56v5.726l.896.098-.042.294-1.064-.028-1.12.028-.028-.294.966-.098v-5.782l-.966-.098.028-.28 1.19.014 1.064-.014 2.058 5.068.028.392 2.156-5.46.742.014 1.428-.014.042.28-.98.098v5.782l.98.098-.042.294-1.526-.028-1.344.028-.042-.294.882-.098v-5.166l.07-.602-2.45 6.16ZM37.818 144.486l-1.526.028-.042-.294.98-.098v-5.796l-1.484.014-.714 2.03h-.28v-2.394h6.076v2.394h-.28l-.714-2.03-1.484-.014v5.796l1.022.098-.042.294-1.512-.028Zm9.162-1.302.14.294a9.176 9.176 0 0 1-2.352 1.232c-1.624 0-3.15-1.134-3.15-3.304 0-2.156 1.33-3.262 3.052-3.626 1.778 0 2.394 1.106 2.394 2.576v.448h-4.34v.028c0 1.862.966 2.968 2.492 2.968.574 0 1.232-.28 1.764-.616Zm-2.59-4.914c-.952 0-1.568.812-1.652 2.198l3.066-.07v-.028c0-1.19-.224-2.1-1.414-2.1Zm7.522 5.152-1.806 1.288c-1.148 0-1.918-.63-1.918-1.694 0-.476.154-.882.602-1.344l3.08-1.022v-.742c0-.84-.042-1.47-1.106-1.47-.35 0-.672.084-1.064.21l-.294 1.246h-1.008v-.98l2.464-1.134c1.792 0 2.128.602 2.128 2.156v2.898c0 .546.098.854.252 1.176l.742-.056.042.28-1.764.336-.35-1.148Zm-1.638.462c.42 0 .826-.252 1.064-.42l.532-.364v-2.128l-2.058.812c-.294.266-.476.588-.476 1.022 0 .728.434 1.078.938 1.078Zm7.26.602-1.526.028-.042-.294.98-.098v-5.796l-1.484.014-.714 2.03h-.28v-2.394h6.076v2.394h-.28l-.714-2.03-1.484-.014v5.796l1.022.098-.042.294-1.512-.028Zm5.227 3.22-1.555.028-.028-.294.98-.098v-8.834l-.994.168-.041-.266 1.764-.49.335-.014.042 1.232 1.919-1.358c1.665 0 2.673 1.288 2.673 3.136 0 2.156-1.218 3.402-3.317 3.794-.434 0-.91-.112-1.26-.378v3.01l1.47.098-.042.294-1.946-.028Zm2.002-3.444c1.133-.014 1.903-1.134 1.903-2.884 0-1.568-.615-2.744-1.638-2.744-.476 0-.826.252-1.386.644l-.364.252v3.962c.294.462.84.77 1.485.77Zm9.53-1.078.14.294a9.174 9.174 0 0 1-2.351 1.232c-1.624 0-3.15-1.134-3.15-3.304 0-2.156 1.33-3.262 3.052-3.626 1.778 0 2.394 1.106 2.394 2.576v.448h-4.34v.028c0 1.862.966 2.968 2.492 2.968.574 0 1.232-.28 1.764-.616Zm-2.59-4.914c-.951 0-1.567.812-1.651 2.198l3.066-.07v-.028c0-1.19-.224-2.1-1.414-2.1Zm8.904 6.216-1.554.028-.028-.294.966-.098v-5.768l-.966-.098.028-.28 1.526.014 1.372-.014.042.28-.882.098v2.59l.196-.084 2.59-2.492-.672-.112v-.28l1.106.028 1.05-.028.042.28-.882.112-2.786 2.548.546.028 2.688 3.178.728.098-.028.294-1.134-.028-.756.028-2.604-3.248-.084-.154v3.01l.882.098-.028.294-1.358-.028Zm6.876.084h-1.372v-1.26h1.078c.336-.546.644-1.19.784-1.862.126-.7.266-2.324.266-3.094l-1.022-.098.042-.28 2.59.014 2.856-.014.028.28-1.008.098v5.768l1.008.098-.028.294-1.54-.028-1.47.028-.042-.294.952-.098v-5.74H88.73l-.322 2.66c-.14 1.162-.42 2.534-.924 3.528Zm9.97-1.148-1.807 1.288c-1.148 0-1.918-.63-1.918-1.694 0-.476.154-.882.602-1.344l3.08-1.022v-.742c0-.84-.042-1.47-1.106-1.47-.35 0-.672.084-1.064.21l-.294 1.246h-1.008v-.98l2.464-1.134c1.792 0 2.128.602 2.128 2.156v2.898c0 .546.098.854.252 1.176l.742-.056.042.28-1.764.336-.35-1.148Zm-1.639.462c.42 0 .826-.252 1.064-.42l.532-.364v-2.128l-2.058.812c-.294.266-.476.588-.476 1.022 0 .728.434 1.078.938 1.078Zm7.349.826c-1.75 0-3.066-1.176-3.066-3.276 0-2.226 1.61-3.332 3.262-3.654.588 0 1.442.35 1.862.7v1.246h-.882l-.462-1.288a1.34 1.34 0 0 0-.728-.182c-1.064 0-1.918.938-1.918 2.674 0 1.624.882 2.884 2.296 2.884.588 0 1.162-.266 1.694-.658l.126.294a8.335 8.335 0 0 1-2.184 1.26Zm6.19 0c-1.75 0-3.066-1.176-3.066-3.276 0-2.226 1.61-3.332 3.262-3.654.588 0 1.442.35 1.862.7v1.246h-.882l-.462-1.288a1.34 1.34 0 0 0-.728-.182c-1.064 0-1.918.938-1.918 2.674 0 1.624.882 2.884 2.296 2.884.588 0 1.162-.266 1.694-.658l.126.294a8.335 8.335 0 0 1-2.184 1.26Zm10.513-6.454-1.008.098v5.768l1.008.098-.028.294-1.54-.028-1.372.028-.042-.294.882-.098v-4.872l-3.206 4.382v.49l.84.098-.028.294-1.344-.028-1.54.028-.028-.294 1.008-.098v-5.768l-1.008-.098.028-.28 1.54.014 1.344-.014.028.28-.84.098v4.718l3.206-4.382v-.336l-.882-.098.042-.28 1.372.014 1.54-.014.028.28Zm7.69 0-1.008.098v5.768l1.008.098-.042.294-1.498-.028-1.806.028-.042-.294 1.26-.098v-2.534l-2.17.616c-1.246 0-1.736-.574-1.736-1.596v-2.254l-.98-.098.042-.28 1.526.014 1.26-.014.042.28-.77.098v2.142c0 .686.364 1.036 1.106 1.036.532 0 1.008-.084 1.68-.308v-2.87l-.84-.098.042-.28 1.358.014 1.526-.014.042.28Zm6.146 4.928.14.294a9.174 9.174 0 0 1-2.352 1.232c-1.624 0-3.15-1.134-3.15-3.304 0-2.156 1.33-3.262 3.052-3.626 1.778 0 2.394 1.106 2.394 2.576v.448h-4.34v.028c0 1.862.966 2.968 2.492 2.968.574 0 1.232-.28 1.764-.616Zm-2.59-4.914c-.952 0-1.568.812-1.652 2.198l3.066-.07v-.028c0-1.19-.224-2.1-1.414-2.1Zm6.881 6.44c-1.75 0-3.066-1.176-3.066-3.276 0-2.226 1.61-3.332 3.262-3.654.588 0 1.442.35 1.862.7v1.246h-.882l-.462-1.288a1.34 1.34 0 0 0-.728-.182c-1.064 0-1.918.938-1.918 2.674 0 1.624.882 2.884 2.296 2.884.588 0 1.162-.266 1.694-.658l.126.294a8.335 8.335 0 0 1-2.184 1.26Zm4.689-.224-1.554.028-.028-.294.966-.098v-5.768l-.966-.098.028-.28 1.526.014 1.372-.014.042.28-.882.098v2.59l.196-.084 2.59-2.492-.672-.112v-.28l1.106.028 1.05-.028.042.28-.882.112-2.786 2.548.546.028 2.688 3.178.728.098-.028.294-1.134-.028-.756.028-2.604-3.248-.084-.154v3.01l.882.098-.028.294-1.358-.028Zm8.426.224c-1.806 0-3.024-1.428-3.024-3.318 0-2.086 1.232-3.22 3.346-3.612 1.806 0 3.024 1.428 3.024 3.318 0 2.072-1.232 3.234-3.346 3.612Zm.35-.462c1.19 0 1.806-1.246 1.806-2.856 0-1.89-.91-3.136-2.184-3.136-1.204 0-1.806 1.204-1.806 2.842 0 1.694.868 3.15 2.184 3.15Zm5.393.238-1.526.028-.028-.294.966-.098v-5.768l-.966-.098.028-.28 1.526.014 3.626-.014v2.394h-.28l-.728-2.03-2.086-.014v5.768l1.162.112-.042.308-1.652-.028Zm7.442.224c-1.806 0-3.024-1.428-3.024-3.318 0-2.086 1.232-3.22 3.346-3.612 1.806 0 3.024 1.428 3.024 3.318 0 2.072-1.232 3.234-3.346 3.612Zm.35-.462c1.19 0 1.806-1.246 1.806-2.856 0-1.89-.91-3.136-2.184-3.136-1.204 0-1.806 1.204-1.806 2.842 0 1.694.868 3.15 2.184 3.15Zm11.095-6.342c1.792 0 2.772 1.316 2.772 3.15 0 2.114-1.274 3.304-3.304 3.654-1.848 0-2.898-1.736-2.898-4.018 0-2.086.826-3.822 2.058-5.11l.518-.532 3.08-.378c.112-.182.252-.462.336-.644l.28.042c-.196.63-.448 1.4-.56 1.708l-3.416.168c-.434.518-.966 1.624-1.148 3.416.714-.532 1.302-.91 2.282-1.456Zm-.182 6.342c1.162 0 1.764-1.274 1.764-2.828 0-1.666-.672-2.674-1.722-2.674-.462 0-.91.196-1.568.63l-.462.28c-.042.336-.042.644-.042.98 0 2.212.826 3.612 2.03 3.612Zm7.771-.826-1.806 1.288c-1.148 0-1.918-.63-1.918-1.694 0-.476.154-.882.602-1.344l3.08-1.022v-.742c0-.84-.042-1.47-1.106-1.47-.35 0-.672.084-1.064.21l-.294 1.246h-1.008v-.98l2.464-1.134c1.792 0 2.128.602 2.128 2.156v2.898c0 .546.098.854.252 1.176l.742-.056.042.28-1.764.336-.35-1.148Zm-1.638.462c.42 0 .826-.252 1.064-.42l.532-.364v-2.128l-2.058.812c-.294.266-.476.588-.476 1.022 0 .728.434 1.078.938 1.078Zm5.661.686h-1.372v-1.26h1.078c.336-.546.644-1.19.784-1.862.126-.7.266-2.324.266-3.094l-1.022-.098.042-.28 2.59.014 2.856-.014.028.28-1.008.098v5.768l1.008.098-.028.294-1.54-.028-1.47.028-.042-.294.952-.098v-5.74h-1.876l-.322 2.66c-.14 1.162-.42 2.534-.924 3.528Zm11.404-1.386.14.294a9.174 9.174 0 0 1-2.352 1.232c-1.624 0-3.15-1.134-3.15-3.304 0-2.156 1.33-3.262 3.052-3.626 1.778 0 2.394 1.106 2.394 2.576v.448h-4.34v.028c0 1.862.966 2.968 2.492 2.968.574 0 1.232-.28 1.764-.616Zm-2.59-4.914c-.952 0-1.568.812-1.652 2.198l3.066-.07v-.028c0-1.19-.224-2.1-1.414-2.1Zm6.586 6.216-1.526.028-.042-.294.98-.098v-5.796l-1.484.014-.714 2.03h-.28v-2.394h6.076v2.394h-.28l-.714-2.03-1.484-.014v5.796l1.022.098-.042.294-1.512-.028Zm7.522-1.064-1.806 1.288c-1.148 0-1.918-.63-1.918-1.694 0-.476.154-.882.602-1.344l3.08-1.022v-.742c0-.84-.042-1.47-1.106-1.47-.35 0-.672.084-1.064.21l-.294 1.246h-1.008v-.98l2.464-1.134c1.792 0 2.128.602 2.128 2.156v2.898c0 .546.098.854.252 1.176l.742-.056.042.28-1.764.336-.35-1.148Zm-1.638.462c.42 0 .826-.252 1.064-.42l.532-.364v-2.128l-2.058.812c-.294.266-.476.588-.476 1.022 0 .728.434 1.078.938 1.078ZM36.721 164.486l-1.82.028-.028-.294 1.232-.126v-8.988l-1.232-.126.028-.294 1.82.028 1.848-.028.042.294-1.246.126v4.102h4.69v-4.102l-1.26-.126.042-.294 1.862.028 1.806-.028.028.294-1.218.126v8.988l1.218.126-.028.294-1.806-.028-1.862.028-.042-.294 1.26-.126v-4.466h-4.69v4.466l1.246.126-.042.294-1.848-.028Zm10.827.014-.952.07-.364-.07-.07-.742.084-.602.952-.07.378.07.056.714-.084.63Zm5.528-.014-1.876.028-.028-.294 1.246-.126v-8.988l-1.246-.126.028-.294 1.876.028 1.722-.028.028.294-1.148.126v4.242l.196-.14 4.382-4.102-1.148-.14.042-.28 1.414.028 1.302-.028.042.28-1.12.154-4.368 4.172h.602l4.396 4.83.854.098-.042.294-1.316-.028-.924.028-4.2-4.774-.112-.196v4.55l1.148.126-.028.294-1.722-.028Zm11.44-1.064-1.806 1.288c-1.148 0-1.918-.63-1.918-1.694 0-.476.154-.882.602-1.344l3.08-1.022v-.742c0-.84-.041-1.47-1.106-1.47-.35 0-.672.084-1.064.21l-.294 1.246h-1.008v-.98l2.465-1.134c1.791 0 2.127.602 2.127 2.156v2.898c0 .546.099.854.253 1.176l.742-.056.041.28-1.763.336-.35-1.148Zm-1.638.462c.42 0 .827-.252 1.065-.42l.532-.364v-2.128l-2.058.812c-.294.266-.477.588-.477 1.022 0 .728.434 1.078.939 1.078Zm7.35.826c-1.75 0-3.066-1.176-3.066-3.276 0-2.226 1.61-3.332 3.261-3.654.588 0 1.442.35 1.862.7v1.246h-.882l-.462-1.288a1.34 1.34 0 0 0-.728-.182c-1.063 0-1.917.938-1.917 2.674 0 1.624.881 2.884 2.295 2.884.589 0 1.163-.266 1.695-.658l.126.294a8.335 8.335 0 0 1-2.184 1.26Zm6.831-1.288-1.806 1.288c-1.148 0-1.918-.63-1.918-1.694 0-.476.154-.882.602-1.344l3.08-1.022v-.742c0-.84-.042-1.47-1.106-1.47-.35 0-.672.084-1.064.21l-.294 1.246h-1.008v-.98l2.464-1.134c1.792 0 2.128.602 2.128 2.156v2.898c0 .546.098.854.252 1.176l.742-.056.042.28-1.764.336-.35-1.148Zm-1.638.462c.42 0 .826-.252 1.064-.42l.532-.364v-2.128l-2.058.812c-.294.266-.476.588-.476 1.022 0 .728.434 1.078.938 1.078Zm7.26.602-1.526.028-.042-.294.98-.098v-5.796l-1.484.014-.714 2.03h-.28v-2.394h6.076v2.394h-.28l-.714-2.03-1.484-.014v5.796l1.022.098-.042.294-1.512-.028Zm5.38 0-1.554.028-.028-.294.966-.098v-5.768l-.966-.098.028-.28 1.526.014 1.372-.014.042.28-.882.098v2.59l.196-.084 2.59-2.492-.672-.112v-.28l1.106.028 1.05-.028.042.28-.882.112-2.786 2.548.546.028 2.688 3.178.728.098-.028.294-1.134-.028-.756.028-2.604-3.248-.084-.154v3.01l.882.098-.028.294-1.358-.028Zm13.162-6.23-1.008.098v5.768l1.008.098-.028.294-1.54-.028-1.372.028-.042-.294.882-.098v-4.872l-3.206 4.382v.49l.84.098-.028.294-1.344-.028-1.54.028-.028-.294 1.008-.098v-5.768l-1.008-.098.028-.28 1.54.014 1.344-.014.028.28-.84.098v4.718l3.206-4.382v-.336l-.882-.098.042-.28 1.372.014 1.54-.014.028.28Zm8.32 0-1.022.098v5.768l1.022.098-.042.294-1.54-.028-1.386.028-.042-.294.868-.098v-2.87h-3.052v2.87l.84.098-.042.294-1.358-.028-1.54.028-.028-.294 1.008-.098v-5.768l-1.008-.098.028-.28 1.54.014 1.358-.014.042.28-.84.098v2.548h3.052v-2.548l-.868-.098.042-.28 1.386.014 1.54-.014.042.28Zm3.807 6.454c-1.806 0-3.024-1.428-3.024-3.318 0-2.086 1.232-3.22 3.346-3.612 1.806 0 3.024 1.428 3.024 3.318 0 2.072-1.232 3.234-3.346 3.612Zm.35-.462c1.19 0 1.806-1.246 1.806-2.856 0-1.89-.91-3.136-2.184-3.136-1.204 0-1.806 1.204-1.806 2.842 0 1.694.868 3.15 2.184 3.15Zm7.689-7.448c-1.204 0-1.638-.406-1.918-.616l-.154-.574.112-.504.616-.056.308.056.126.63v.616c.182.098.448.168.756.168.266 0 .504-.07.7-.168v-.658l.154-.574.616-.07.336.056.07.602-.168.476c-.294.252-.756.532-1.554.616Zm3.556 1.456-1.008.098v5.768l1.008.098-.028.294-1.54-.028-1.372.028-.042-.294.882-.098v-4.872l-3.206 4.382v.49l.84.098-.028.294-1.344-.028-1.54.028-.028-.294 1.008-.098v-5.768l-1.008-.098.028-.28 1.54.014 1.344-.014.028.28-.84.098v4.718l3.206-4.382v-.336l-.882-.098.042-.28 1.372.014 1.54-.014.028.28Zm11.928 0-1.008.098v5.768l1.008.098-.028.294-1.54-.028-1.372.028-.042-.294.882-.098v-4.872l-3.206 4.382v.49l.84.098-.028.294-1.344-.028-1.54.028-.028-.294 1.008-.098v-5.768l-1.008-.098.028-.28 1.54.014 1.344-.014.028.28-.84.098v4.718l3.206-4.382v-.336l-.882-.098.042-.28 1.372.014 1.54-.014.028.28Zm6.451 6.23-1.834.028-.028-.294 1.246-.126v-8.988l-1.246-.126.028-.294 1.89.028 2.618-.028c1.806 0 2.716 1.036 2.716 2.128 0 1.274-1.19 2.254-2.492 2.45 2.044.056 3.066 1.106 3.066 2.394 0 1.862-1.512 2.674-3.724 2.856l-2.24-.028Zm.644-9.38v4.046h1.386c1.288 0 2.044-1.008 2.044-2.254 0-1.106-.672-1.848-1.862-1.862l-1.568.07Zm0 8.988 1.372.07c1.988 0 2.618-1.204 2.618-2.436 0-1.358-.938-2.184-2.338-2.184h-1.652v4.55Zm8.487.406-.952.07-.364-.07-.07-.742.084-.602.952-.07.378.07.056.714-.084.63Zm5.486-.014-1.834.028-.028-.294 1.246-.126v-8.988l-1.246-.126.028-.294 1.89.028 2.618-.028c1.806 0 2.716 1.036 2.716 2.128 0 1.274-1.19 2.254-2.492 2.45 2.044.056 3.066 1.106 3.066 2.394 0 1.862-1.512 2.674-3.724 2.856l-2.24-.028Zm.644-9.38v4.046h1.386c1.288 0 2.044-1.008 2.044-2.254 0-1.106-.672-1.848-1.862-1.862l-1.568.07Zm0 8.988 1.372.07c1.988 0 2.618-1.204 2.618-2.436 0-1.358-.938-2.184-2.338-2.184h-1.652v4.55Zm10.265-.672-1.806 1.288c-1.148 0-1.918-.63-1.918-1.694 0-.476.154-.882.602-1.344l3.08-1.022v-.742c0-.84-.042-1.47-1.106-1.47-.35 0-.672.084-1.064.21l-.294 1.246h-1.008v-.98l2.464-1.134c1.792 0 2.128.602 2.128 2.156v2.898c0 .546.098.854.252 1.176l.742-.056.042.28-1.764.336-.35-1.148Zm-1.638.462c.42 0 .826-.252 1.064-.42l.532-.364v-2.128l-2.058.812c-.294.266-.476.588-.476 1.022 0 .728.434 1.078.938 1.078Zm7.349.826c-1.75 0-3.066-1.176-3.066-3.276 0-2.226 1.61-3.332 3.262-3.654.588 0 1.442.35 1.862.7v1.246h-.882l-.462-1.288a1.34 1.34 0 0 0-.728-.182c-1.064 0-1.918.938-1.918 2.674 0 1.624.882 2.884 2.296 2.884.588 0 1.162-.266 1.694-.658l.126.294a8.335 8.335 0 0 1-2.184 1.26Zm10.514-6.454-1.008.098v5.768l1.008.098-.028.294-1.54-.028-1.372.028-.042-.294.882-.098v-4.872l-3.206 4.382v.49l.84.098-.028.294-1.344-.028-1.54.028-.028-.294 1.008-.098v-5.768l-1.008-.098.028-.28 1.54.014 1.344-.014.028.28-.84.098v4.718l3.206-4.382v-.336l-.882-.098.042-.28 1.372.014 1.54-.014.028.28Zm2.118 6.314h-1.372v-1.26h1.078c.336-.546.644-1.19.784-1.862.126-.7.266-2.324.266-3.094l-1.022-.098.042-.28 2.59.014 2.856-.014.028.28-1.008.098v5.768l1.008.098-.028.294-1.54-.028-1.47.028-.042-.294.952-.098v-5.74h-1.876l-.322 2.66c-.14 1.162-.42 2.534-.924 3.528Zm8.351-8.344-.756.056-.322-.056-.056-.616.112-.504.756-.07.308.07.07.588-.112.532Zm2.506 0-.742.056-.322-.056-.056-.616.112-.504.756-.07.308.07.07.588-.126.532Zm.546 6.958.14.294a9.174 9.174 0 0 1-2.352 1.232c-1.624 0-3.15-1.134-3.15-3.304 0-2.156 1.33-3.262 3.052-3.626 1.778 0 2.394 1.106 2.394 2.576v.448h-4.34v.028c0 1.862.966 2.968 2.492 2.968.574 0 1.232-.28 1.764-.616Zm-2.59-4.914c-.952 0-1.568.812-1.652 2.198l3.066-.07v-.028c0-1.19-.224-2.1-1.414-2.1Zm5.12 6.216-1.526.028-.028-.294.966-.098v-5.768l-.966-.098.028-.28 1.526.014 2.1-.028c1.442-.028 2.072.686 2.072 1.414 0 .91-.924 1.498-1.918 1.624 1.484.042 2.212.742 2.212 1.61 0 1.246-1.12 1.778-2.744 1.904l-1.722-.028Zm.532-6.146v2.562l1.148-.028c.826-.028 1.316-.602 1.316-1.442 0-.686-.42-1.134-1.218-1.134l-1.246.042Zm0 5.796 1.008.042c1.316 0 1.736-.756 1.736-1.54 0-.868-.588-1.414-1.47-1.414l-1.274.014v2.898Zm8.771-.714-1.806 1.288c-1.148 0-1.918-.63-1.918-1.694 0-.476.154-.882.602-1.344l3.08-1.022v-.742c0-.84-.042-1.47-1.106-1.47-.35 0-.672.084-1.064.21l-.294 1.246h-1.008v-.98l2.464-1.134c1.792 0 2.128.602 2.128 2.156v2.898c0 .546.098.854.252 1.176l.742-.056.042.28-1.764.336-.35-1.148Zm-1.638.462c.42 0 .826-.252 1.064-.42l.532-.364v-2.128l-2.058.812c-.294.266-.476.588-.476 1.022 0 .728.434 1.078.938 1.078Z"/>
  <defs>
    <linearGradient id="a" x1="104.5" x2="54" y1="101.5" y2="101.5" gradientUnits="userSpaceOnUse">
      <stop stop-color="#AE8E7E"/>
      <stop offset="1" stop-color="#AE8E7E" stop-opacity="0"/>
    </linearGradient>
    <linearGradient id="b" x1="-.5" x2="51.5" y1="0" y2="0" gradientUnits="userSpaceOnUse">
      <stop stop-color="#AE8E7E"/>
      <stop offset="1" stop-color="#AE8E7E" stop-opacity="0"/>
    </linearGradient>
  </defs>
</svg>
