<svg xmlns="http://www.w3.org/2000/svg" fill="none" viewBox="0 0 256 128"><g clip-path="url(#a)" filter="url(#b)"><path fill="#573E3E" d="m55.509 18.974 5.184 66.816 8.544.48-.096.48H45.62l.096-.48 8.64-.48-1.728-23.328H28.82L15.86 85.79l8.544.48-.096.48H5.205l.096-.48 8.64-.48 36.672-65.568 4.896-1.248Zm-5.76 5.856L29.397 61.502h23.136L49.749 24.83Zm62.029 54.048-10.656 9.312-3.648-1.44-7.297-24h-3.264l-4.32 24h-5.376l7.392-42.144-9.12 3.456-.192-.48 14.88-6.432.384.288-3.648 20.544h3.264l15.361-19.872h6.816l-1.152 6.72h-9.504L90.946 62.27l5.472 1.824 6.816 20.928 8.256-6.528.288.384Zm16.011 7.872v-.48l8.832-.48V20.51h-16.512l-5.856 17.376h-.48V19.55h52.416v18.336h-.481l-5.855-17.376h-16.512v65.28l8.832.48v.48h-24.384Zm68.634-8.064.288.288c-5.472 4.224-9.024 6.624-15.168 9.216-10.656 0-21.12-7.2-21.12-21.888 0-14.976 9.12-22.656 19.872-25.152 12 0 15.744 7.488 15.744 17.28v2.016h-29.952c-.096.768-.096 1.632-.096 2.496 0 12.864 7.68 20.448 17.952 20.448 4.224 0 8.736-2.208 12.48-4.704Zm-17.952-35.52c-7.584 0-11.712 6.144-12.384 16.8h23.232c0-9.12-1.728-16.8-10.848-16.8Zm21.849 65.664v-.48l6.912-.48V43.934l-7.008 1.824-.096-.384 12.384-3.744h.48v9.024l14.304-9.504c9.984 0 16.896 9.408 16.896 20.352 0 13.344-7.008 23.328-21.696 26.688-3.264 0-6.912-.768-9.504-2.976v22.656l10.272.48v.48H200.32Zm22.848-21.888c8.64-.096 14.784-8.736 14.784-22.176 0-10.272-4.512-19.2-12.768-19.2-4.128 0-5.856 1.728-10.08 4.416l-2.112 1.344V81.47c1.92 3.168 5.472 5.568 10.176 5.472Z"/><path fill="url(#c)" fill-opacity=".5" d="m55.509 18.974 5.184 66.816 8.544.48-.096.48H45.62l.096-.48 8.64-.48-1.728-23.328H28.82L15.86 85.79l8.544.48-.096.48H5.205l.096-.48 8.64-.48 36.672-65.568 4.896-1.248Zm-5.76 5.856L29.397 61.502h23.136L49.749 24.83Zm62.029 54.048-10.656 9.312-3.648-1.44-7.297-24h-3.264l-4.32 24h-5.376l7.392-42.144-9.12 3.456-.192-.48 14.88-6.432.384.288-3.648 20.544h3.264l15.361-19.872h6.816l-1.152 6.72h-9.504L90.946 62.27l5.472 1.824 6.816 20.928 8.256-6.528.288.384Zm16.011 7.872v-.48l8.832-.48V20.51h-16.512l-5.856 17.376h-.48V19.55h52.416v18.336h-.481l-5.855-17.376h-16.512v65.28l8.832.48v.48h-24.384Zm68.634-8.064.288.288c-5.472 4.224-9.024 6.624-15.168 9.216-10.656 0-21.12-7.2-21.12-21.888 0-14.976 9.12-22.656 19.872-25.152 12 0 15.744 7.488 15.744 17.28v2.016h-29.952c-.096.768-.096 1.632-.096 2.496 0 12.864 7.68 20.448 17.952 20.448 4.224 0 8.736-2.208 12.48-4.704Zm-17.952-35.52c-7.584 0-11.712 6.144-12.384 16.8h23.232c0-9.12-1.728-16.8-10.848-16.8Zm21.849 65.664v-.48l6.912-.48V43.934l-7.008 1.824-.096-.384 12.384-3.744h.48v9.024l14.304-9.504c9.984 0 16.896 9.408 16.896 20.352 0 13.344-7.008 23.328-21.696 26.688-3.264 0-6.912-.768-9.504-2.976v22.656l10.272.48v.48H200.32Zm22.848-21.888c8.64-.096 14.784-8.736 14.784-22.176 0-10.272-4.512-19.2-12.768-19.2-4.128 0-5.856 1.728-10.08 4.416l-2.112 1.344V81.47c1.92 3.168 5.472 5.568 10.176 5.472Z"/><path fill="#573E3E" d="M14.388 108.522c-2.912 0-5.6-2.016-5.6-5.712 0-3.648 2.4-5.648 5.808-6.032 1.584 0 2.944.576 3.744 1.072v2.272h-.48l-.688-1.76c-.528-.528-1.36-1.088-2.72-1.088-2.288 0-4.048 1.776-4.048 5.232 0 2.736 1.424 5.472 4.384 5.472.992 0 1.824-.528 2.288-.976l.88-1.984h.48l-.208 2.352c-1.024.48-2.416.96-3.84 1.152Zm14.053-.288-2.384.032-.048-.336 1.712-.144V97.514h-2.544l-.864 2.464h-.352v-2.944l4.464.032 4.496-.032v2.944h-.368l-.864-2.464h-2.528v10.272l1.648.144-.032.336-2.336-.032ZM47.68 97.066l1.568-.032.048.32-1.28.112-3.392 7.776-1.392 3.072h-1.968v-1.616H43.2l.832-1.392-.976.336-3.744-8.16-1.248-.128.048-.32 2.096.032 2.048-.032.032.32-1.376.144 3.2 7.248.016.384 3.216-7.632-1.424-.144.048-.32 1.712.032Zm15.539.304-1.408.144v10.272l1.328.128v3.232h-.336l-1.296-2.896-6.736-.016-1.328 2.912h-.336v-3.216l1.264-.144c.688-1.488 1.168-2.64 1.424-4.336.208-1.536.448-4.432.48-5.936l-1.824-.144.032-.336 4.288.032 4.4-.032.048.336Zm-7.888 10.384h5.04V97.546h-3.504l-.544 5.536a19.624 19.624 0 0 1-.992 4.672Zm24.7-10.384-1.408.144v10.272l1.408.144-.048.336-2.064-.032-2.112.032-.032-.336 1.44-.144V98.97l-5.584 8.128v.688l1.424.144-.032.336-2.096-.032-2.08.032-.032-.336 1.408-.144V97.514l-1.408-.144.032-.336 2.08.032 2.096-.032.032.336-1.424.144v8.752l5.584-8.112v-.64l-1.44-.144.032-.336 2.112.032 2.064-.032.048.336Zm15.145 0-1.392.144v10.272l1.392.144-.048.336-2.064-.032-2.032.032-.048-.336 1.36-.144v-4.848l-1.264.112-.048.048-3.36 5.168-.96-.032-1.28.032-.032-.32.848-.16 2.896-4.32.928-.384c-1.904-.16-3.376-1.2-3.376-2.944 0-1.84 1.328-2.784 3.328-3.104l3.024.032 2.08-.032.048.336Zm-3.984 5.184h1.152v-5.04l-1.664-.08c-1.392 0-2.416 1.008-2.416 2.576 0 1.408.912 2.544 2.928 2.544Zm18.255 5.68-2.176.032-.032-.336 1.424-.144V97.514l-1.424-.144.032-.336 2.128.032 5.664-.032.08 2.88h-.32l-.944-2.4-3.776-.016v4.4h2.512c1.984-.016 3.456.928 3.456 2.832 0 2.176-1.856 3.104-3.792 3.536l-2.832-.032Zm.656-.496 1.664.096c1.648-.016 2.768-1.264 2.768-2.944 0-1.472-.704-2.512-2.464-2.512h-1.968v5.36Zm12.161.496-1.536.032-.032-.336 1.264-.128 3.92-10.56.816-.352 4.016 10.912 1.248.128-.032.336-2.096-.032-2.064.032-.048-.32 1.392-.16-1.216-3.472h-4.032l-1.216 3.472 1.408.16-.032.32-1.76-.032Zm3.68-9.824-1.92 5.44h3.712l-1.744-5.008-.048-.432Zm12.759 9.92h-1.904v-1.68h1.264c.624-.928.992-1.872 1.2-3.168.272-1.712.56-4.672.576-5.968l-1.856-.144.048-.336 4.464.032 4.128-.032.032.336-1.392.144v10.272l1.44.144-.032.336-2.112-.032-2.128.032-.048-.336 1.44-.144v-10.24h-3.392l-.576 5.6c-.192 1.84-.512 3.648-1.152 5.184Zm15.761-.096-2.128.032-.032-.336 1.424-.144V97.514l-1.424-.144.032-.336 2.128.032 6.384-.032.08 2.864h-.304l-.944-2.384-4.512-.016v4.688l2.56-.032.656-1.776h.304l-.08 1.968.08 2.032h-.304l-.656-1.76-2.56-.032v5.216l4.656-.016 1.04-2.448h.336l-.288 2.928-6.448-.032Zm16.513 0-2.384.032-.048-.336 1.712-.144V97.514h-2.544l-.864 2.464h-.352v-2.944l4.464.032 4.496-.032v2.944h-.368l-.864-2.464h-2.528v10.272l1.648.144-.032.336-2.336-.032Zm9.566 0-1.536.032-.032-.336 1.264-.128 3.92-10.56.816-.352 4.016 10.912 1.248.128-.032.336-2.096-.032-2.064.032-.048-.32 1.392-.16-1.216-3.472h-4.032l-1.216 3.472 1.408.16-.032.32-1.76-.032Zm3.68-9.824-1.92 5.44h3.712l-1.744-5.008-.048-.432Z"/></g><defs><linearGradient id="c" x1="128" x2="128" y1="19.75" y2="86.75" gradientUnits="userSpaceOnUse"><stop stop-color="#CBA576"/><stop offset="1" stop-color="#CBA576" stop-opacity="0"/></linearGradient><clipPath id="a"><path fill="#fff" d="M0 0h256v128H0z"/></clipPath><filter id="b" width="363.595" height="212.973" x="-30.195" y="8.574" color-interpolation-filters="sRGB" filterUnits="userSpaceOnUse"><feFlood flood-opacity="0" result="BackgroundImageFix"/><feColorMatrix in="SourceAlpha" result="hardAlpha" values="0 0 0 0 0 0 0 0 0 0 0 0 0 0 0 0 0 0 127 0"/><feOffset dx=".3" dy=".5"/><feGaussianBlur stdDeviation=".35"/><feComposite in2="hardAlpha" operator="out"/><feColorMatrix values="0 0 0 0 0.0862745 0 0 0 0 0.0862745 0 0 0 0 0.0862745 0 0 0 0.085 0"/><feBlend in2="BackgroundImageFix" mode="color-burn" result="effect1_dropShadow_1361_874"/><feColorMatrix in="SourceAlpha" result="hardAlpha" values="0 0 0 0 0 0 0 0 0 0 0 0 0 0 0 0 0 0 127 0"/><feMorphology in="SourceAlpha" radius=".4" result="effect2_dropShadow_1361_874"/><feOffset dx="1.5" dy="2.9"/><feGaussianBlur stdDeviation="1.85"/><feComposite in2="hardAlpha" operator="out"/><feColorMatrix values="0 0 0 0 0.0862745 0 0 0 0 0.0862745 0 0 0 0 0.0862745 0 0 0 0.085 0"/><feBlend in2="effect1_dropShadow_1361_874" mode="color-burn" result="effect2_dropShadow_1361_874"/><feColorMatrix in="SourceAlpha" result="hardAlpha" values="0 0 0 0 0 0 0 0 0 0 0 0 0 0 0 0 0 0 127 0"/><feMorphology in="SourceAlpha" radius=".7" result="effect3_dropShadow_1361_874"/><feOffset dx="2.7" dy="5.4"/><feGaussianBlur stdDeviation="3.4"/><feComposite in2="hardAlpha" operator="out"/><feColorMatrix values="0 0 0 0 0.0862745 0 0 0 0 0.0862745 0 0 0 0 0.0862745 0 0 0 0.085 0"/><feBlend in2="effect2_dropShadow_1361_874" mode="color-burn" result="effect3_dropShadow_1361_874"/><feColorMatrix in="SourceAlpha" result="hardAlpha" values="0 0 0 0 0 0 0 0 0 0 0 0 0 0 0 0 0 0 127 0"/><feMorphology in="SourceAlpha" radius="1.1" result="effect4_dropShadow_1361_874"/><feOffset dx="4.5" dy="8.9"/><feGaussianBlur stdDeviation="5.6"/><feComposite in2="hardAlpha" operator="out"/><feColorMatrix values="0 0 0 0 0.0862745 0 0 0 0 0.0862745 0 0 0 0 0.0862745 0 0 0 0.085 0"/><feBlend in2="effect3_dropShadow_1361_874" mode="color-burn" result="effect4_dropShadow_1361_874"/><feColorMatrix in="SourceAlpha" result="hardAlpha" values="0 0 0 0 0 0 0 0 0 0 0 0 0 0 0 0 0 0 127 0"/><feMorphology in="SourceAlpha" radius="1.4" result="effect5_dropShadow_1361_874"/><feOffset dx="7.1" dy="14.3"/><feGaussianBlur stdDeviation="9"/><feComposite in2="hardAlpha" operator="out"/><feColorMatrix values="0 0 0 0 0.0862745 0 0 0 0 0.0862745 0 0 0 0 0.0862745 0 0 0 0.085 0"/><feBlend in2="effect4_dropShadow_1361_874" mode="color-burn" result="effect5_dropShadow_1361_874"/><feColorMatrix in="SourceAlpha" result="hardAlpha" values="0 0 0 0 0 0 0 0 0 0 0 0 0 0 0 0 0 0 127 0"/><feMorphology in="SourceAlpha" radius="1.8" result="effect6_dropShadow_1361_874"/><feOffset dx="11.2" dy="22.3"/><feGaussianBlur stdDeviation="14.05"/><feComposite in2="hardAlpha" operator="out"/><feColorMatrix values="0 0 0 0 0.0862745 0 0 0 0 0.0862745 0 0 0 0 0.0862745 0 0 0 0.085 0"/><feBlend in2="effect5_dropShadow_1361_874" mode="color-burn" result="effect6_dropShadow_1361_874"/><feColorMatrix in="SourceAlpha" result="hardAlpha" values="0 0 0 0 0 0 0 0 0 0 0 0 0 0 0 0 0 0 127 0"/><feMorphology in="SourceAlpha" radius="2.1" result="effect7_dropShadow_1361_874"/><feOffset dx="17" dy="33.9"/><feGaussianBlur stdDeviation="21.35"/><feComposite in2="hardAlpha" operator="out"/><feColorMatrix values="0 0 0 0 0.0862745 0 0 0 0 0.0862745 0 0 0 0 0.0862745 0 0 0 0.085 0"/><feBlend in2="effect6_dropShadow_1361_874" mode="color-burn" result="effect7_dropShadow_1361_874"/><feColorMatrix in="SourceAlpha" result="hardAlpha" values="0 0 0 0 0 0 0 0 0 0 0 0 0 0 0 0 0 0 127 0"/><feMorphology in="SourceAlpha" radius="2.5" result="effect8_dropShadow_1361_874"/><feOffset dx="25" dy="50"/><feGaussianBlur stdDeviation="31.45"/><feComposite in2="hardAlpha" operator="out"/><feColorMatrix values="0 0 0 0 0.0862745 0 0 0 0 0.0862745 0 0 0 0 0.0862745 0 0 0 0.085 0"/><feBlend in2="effect7_dropShadow_1361_874" mode="color-burn" result="effect8_dropShadow_1361_874"/><feBlend in="SourceGraphic" in2="effect8_dropShadow_1361_874" result="shape"/></filter></defs></svg>