<svg viewBox="0 0 244 165" fill="none" xmlns="http://www.w3.org/2000/svg" alt="Балетная студия АкТер" itemprop="logo">
<path d="M9.77857 88.772C6.86657 88.772 4.17857 86.756 4.17857 83.06C4.17857 79.412 6.57857 77.412 9.98657 77.028C11.5706 77.028 12.9306 77.604 13.7306 78.1V80.372H13.2506L12.5626 78.612C12.0346 78.084 11.2026 77.524 9.84257 77.524C7.55457 77.524 5.79457 79.3 5.79457 82.756C5.79457 85.492 7.21857 88.228 10.1786 88.228C11.1706 88.228 12.0026 87.7 12.4666 87.252L13.3466 85.268H13.8266L13.6186 87.62C12.5946 88.1 11.2026 88.58 9.77857 88.772ZM23.8316 88.484L21.4476 88.516L21.3996 88.18L23.1116 88.036V77.764H20.5676L19.7036 80.228H19.3516V77.284L23.8156 77.316L28.3116 77.284V80.228H27.9436L27.0796 77.764H24.5516V88.036L26.1996 88.18L26.1676 88.516L23.8316 88.484ZM43.0696 77.316L44.6376 77.284L44.6856 77.604L43.4056 77.716L40.0136 85.492L38.6216 88.564H36.6536V86.948H38.5896L39.4216 85.556L38.4456 85.892L34.7016 77.732L33.4536 77.604L33.5016 77.284L35.5976 77.316L37.6456 77.284L37.6776 77.604L36.3016 77.748L39.5016 84.996L39.5176 85.38L42.7336 77.748L41.3096 77.604L41.3576 77.284L43.0696 77.316ZM58.6081 77.62L57.2001 77.764V88.036L58.5281 88.164V91.396H58.1921L56.8961 88.5L50.1601 88.484L48.8321 91.396H48.4961V88.18L49.7601 88.036C50.4481 86.548 50.9281 85.396 51.1841 83.7C51.3921 82.164 51.6321 79.268 51.6641 77.764L49.8401 77.62L49.8721 77.284L54.1601 77.316L58.5601 77.284L58.6081 77.62ZM50.7201 88.004H55.7601V77.796H52.2561L51.7121 83.332C51.5521 85.06 51.2161 86.564 50.7201 88.004ZM75.4202 77.62L74.0122 77.764V88.036L75.4202 88.18L75.3722 88.516L73.3082 88.484L71.1962 88.516L71.1642 88.18L72.6042 88.036V79.22L67.0202 87.348V88.036L68.4442 88.18L68.4122 88.516L66.3162 88.484L64.2362 88.516L64.2042 88.18L65.6122 88.036V77.764L64.2042 77.62L64.2362 77.284L66.3162 77.316L68.4122 77.284L68.4442 77.62L67.0202 77.764V86.516L72.6042 78.404V77.764L71.1642 77.62L71.1962 77.284L73.3082 77.316L75.3722 77.284L75.4202 77.62ZM90.5647 77.62L89.1727 77.764V88.036L90.5647 88.18L90.5167 88.516L88.4527 88.484L86.4207 88.516L86.3727 88.18L87.7327 88.036V83.188L86.4687 83.3L86.4207 83.348L83.0607 88.516L82.1007 88.484L80.8207 88.516L80.7887 88.196L81.6367 88.036L84.5327 83.716L85.4607 83.332C83.5567 83.172 82.0847 82.132 82.0847 80.388C82.0847 78.548 83.4127 77.604 85.4127 77.284L88.4367 77.316L90.5167 77.284L90.5647 77.62ZM86.5807 82.804H87.7327V77.764L86.0687 77.684C84.6767 77.684 83.6527 78.692 83.6527 80.26C83.6527 81.668 84.5647 82.804 86.5807 82.804ZM104.837 88.484L102.661 88.516L102.629 88.18L104.053 88.036V77.764L102.629 77.62L102.661 77.284L104.789 77.316L110.453 77.284L110.533 80.164H110.213L109.269 77.764L105.493 77.748V82.148H108.005C109.989 82.132 111.461 83.076 111.461 84.98C111.461 87.156 109.605 88.084 107.669 88.516L104.837 88.484ZM105.493 87.988L107.157 88.084C108.805 88.068 109.925 86.82 109.925 85.14C109.925 83.668 109.221 82.628 107.461 82.628H105.493V87.988ZM117.653 88.484L116.117 88.516L116.085 88.18L117.349 88.052L121.269 77.492L122.085 77.14L126.101 88.052L127.349 88.18L127.317 88.516L125.221 88.484L123.157 88.516L123.109 88.196L124.501 88.036L123.285 84.564H119.253L118.037 88.036L119.445 88.196L119.413 88.516L117.653 88.484ZM121.333 78.66L119.413 84.1H123.125L121.381 79.092L121.333 78.66ZM134.093 88.58H132.189V86.9H133.453C134.077 85.972 134.445 85.028 134.653 83.732C134.925 82.02 135.213 79.06 135.229 77.764L133.373 77.62L133.421 77.284L137.885 77.316L142.013 77.284L142.045 77.62L140.653 77.764V88.036L142.093 88.18L142.061 88.516L139.949 88.484L137.821 88.516L137.773 88.18L139.213 88.036V77.796H135.821L135.245 83.396C135.053 85.236 134.733 87.044 134.093 88.58ZM149.854 88.484L147.726 88.516L147.694 88.18L149.118 88.036V77.764L147.694 77.62L147.726 77.284L149.854 77.316L156.238 77.284L156.318 80.148H156.014L155.07 77.764L150.558 77.748V82.436L153.118 82.404L153.774 80.628H154.078L153.998 82.596L154.078 84.628H153.774L153.118 82.868L150.558 82.836V88.052L155.214 88.036L156.254 85.588H156.59L156.302 88.516L149.854 88.484ZM166.366 88.484L163.982 88.516L163.934 88.18L165.646 88.036V77.764H163.102L162.238 80.228H161.886V77.284L166.35 77.316L170.846 77.284V80.228H170.478L169.614 77.764H167.086V88.036L168.734 88.18L168.702 88.516L166.366 88.484ZM175.932 88.484L174.396 88.516L174.364 88.18L175.628 88.052L179.548 77.492L180.364 77.14L184.38 88.052L185.628 88.18L185.596 88.516L183.5 88.484L181.436 88.516L181.388 88.196L182.78 88.036L181.564 84.564H177.532L176.316 88.036L177.724 88.196L177.692 88.516L175.932 88.484ZM179.612 78.66L177.692 84.1H181.404L179.66 79.092L179.612 78.66Z" fill="#C9AA98"/>
<path d="M51.0088 0.723997L56.1928 67.54L64.7368 68.02L64.6408 68.5H41.1208L41.2168 68.02L49.8568 67.54L48.1288 44.212H24.3208L11.3608 67.54L19.9048 68.02L19.8088 68.5H0.70475L0.80075 68.02L9.44075 67.54L46.1128 1.972L51.0088 0.723997ZM45.2488 6.58L24.8968 43.252H48.0328L45.2488 6.58ZM107.278 60.628L96.6215 69.94L92.9735 68.5L85.6775 44.5H82.4135L78.0935 68.5H72.7175L80.1095 26.356L70.9895 29.812L70.7975 29.332L85.6775 22.9L86.0615 23.188L82.4135 43.732H85.6775L101.038 23.86H107.854L106.702 30.58H99.1175H97.1975L86.4455 44.02L91.9175 45.844L98.7335 66.772L106.99 60.244L107.278 60.628ZM123.289 68.5V68.02L132.121 67.54V2.25999H115.609L109.753 19.636H109.273V1.3H161.689V19.636H161.208L155.353 2.25999H138.841V67.54L147.673 68.02V68.5H123.289ZM191.923 60.436L192.211 60.724C186.739 64.948 183.187 67.348 177.043 69.94C166.387 69.94 155.923 62.74 155.923 48.052C155.923 33.076 165.043 25.396 175.795 22.9C187.795 22.9 191.539 30.388 191.539 40.18V42.196H161.587C161.491 42.964 161.491 43.828 161.491 44.692C161.491 57.556 169.171 65.14 179.443 65.14C183.667 65.14 188.179 62.932 191.923 60.436ZM173.971 24.916C166.387 24.916 162.259 31.06 161.587 41.716H184.819C184.819 32.596 183.091 24.916 173.971 24.916ZM195.82 90.58V90.1L202.732 89.62V25.684L195.724 27.508L195.628 27.124L208.012 23.38H208.492V32.404L222.796 22.9C232.78 22.9 239.692 32.308 239.692 43.252C239.692 56.596 232.684 66.58 217.996 69.94C214.732 69.94 211.084 69.172 208.492 66.964V89.62L218.764 90.1V90.58H195.82ZM218.668 68.692C227.308 68.596 233.452 59.956 233.452 46.516C233.452 36.244 228.94 27.316 220.684 27.316C216.556 27.316 214.828 29.044 210.604 31.732L208.492 33.076V63.22C210.412 66.388 213.964 68.788 218.668 68.692Z" fill="#DECABD"/>
<line x1="105.5" y1="101.675" x2="3" y2="101.675" stroke="url(#paint0_linear_968_961)" stroke-width="0.35"/>
<path d="M120.235 105.31L118.597 106.71L118.009 106.36L118.877 101.544C118.989 100.886 118.793 100.508 118.205 100.508C117.813 100.508 117.421 100.732 116.735 101.194L116.161 101.586L115.293 106.5H114.509L115.587 100.354L114.257 100.858L114.229 100.788L116.399 99.85L116.455 99.892L116.175 101.488L118.499 99.85C119.493 99.85 119.857 100.396 119.717 101.194L118.807 106.304L120.193 105.268L120.235 105.31ZM121.592 109.72H120.808L122.446 100.354L121.116 100.858L121.088 100.788L123.258 99.85L123.314 99.892L123.034 101.502L124.924 99.85C125.862 99.962 126.632 100.732 126.632 102.244C126.632 103.784 125.848 105.352 124.336 106.108L123.118 106.71C122.754 106.668 122.432 106.486 122.18 106.346L121.592 109.72ZM123.818 106.248C125.484 105.534 125.792 104.092 125.792 102.762C125.792 101.432 125.204 100.69 124.378 100.508L123.006 101.642L122.32 105.59C122.768 106.052 123.454 106.234 123.818 106.248ZM131.223 105.044L128.941 106.71C127.947 106.71 127.597 106.206 127.737 105.408L128.647 100.284L127.317 100.732L127.289 100.662L129.445 99.85L129.501 99.892L128.563 105.17C128.451 105.828 128.689 106.052 129.095 106.052C129.529 106.052 129.851 105.898 130.677 105.324L131.237 104.932L132.091 100.06H132.889L131.797 106.304L133.253 105.338L133.295 105.38L131.475 106.71L130.999 106.36L131.223 105.044Z" fill="#573E3E"/>
<path d="M120.235 105.31L118.597 106.71L118.009 106.36L118.877 101.544C118.989 100.886 118.793 100.508 118.205 100.508C117.813 100.508 117.421 100.732 116.735 101.194L116.161 101.586L115.293 106.5H114.509L115.587 100.354L114.257 100.858L114.229 100.788L116.399 99.85L116.455 99.892L116.175 101.488L118.499 99.85C119.493 99.85 119.857 100.396 119.717 101.194L118.807 106.304L120.193 105.268L120.235 105.31ZM121.592 109.72H120.808L122.446 100.354L121.116 100.858L121.088 100.788L123.258 99.85L123.314 99.892L123.034 101.502L124.924 99.85C125.862 99.962 126.632 100.732 126.632 102.244C126.632 103.784 125.848 105.352 124.336 106.108L123.118 106.71C122.754 106.668 122.432 106.486 122.18 106.346L121.592 109.72ZM123.818 106.248C125.484 105.534 125.792 104.092 125.792 102.762C125.792 101.432 125.204 100.69 124.378 100.508L123.006 101.642L122.32 105.59C122.768 106.052 123.454 106.234 123.818 106.248ZM131.223 105.044L128.941 106.71C127.947 106.71 127.597 106.206 127.737 105.408L128.647 100.284L127.317 100.732L127.289 100.662L129.445 99.85L129.501 99.892L128.563 105.17C128.451 105.828 128.689 106.052 129.095 106.052C129.529 106.052 129.851 105.898 130.677 105.324L131.237 104.932L132.091 100.06H132.889L131.797 106.304L133.253 105.338L133.295 105.38L131.475 106.71L130.999 106.36L131.223 105.044Z" fill="#AE8E7E"/>
<line y1="-0.175" x2="102.5" y2="-0.175" transform="matrix(1 0 0 -1 141.5 101.5)" stroke="url(#paint1_linear_968_961)" stroke-width="0.35"/>
<path d="M21.7761 124.486L19.9141 124.514L19.8861 124.22L21.1321 124.094V115.106L19.8861 114.98L19.9141 114.686L21.7761 114.714L26.8021 114.686L26.8581 117.206H26.5921L25.7661 115.106L22.3921 115.092V124.094L23.9181 124.22L23.8901 124.514L21.7761 124.486ZM29.5248 124.71C27.7188 124.71 26.5008 123.282 26.5008 121.392C26.5008 119.306 27.7328 118.172 29.8468 117.78C31.6528 117.78 32.8708 119.208 32.8708 121.098C32.8708 123.17 31.6388 124.332 29.5248 124.71ZM29.8748 124.248C31.0648 124.248 31.6808 123.002 31.6808 121.392C31.6808 119.502 30.7708 118.256 29.4968 118.256C28.2928 118.256 27.6908 119.46 27.6908 121.098C27.6908 122.792 28.5588 124.248 29.8748 124.248ZM37.0279 124.71C35.2779 124.71 33.9619 123.534 33.9619 121.434C33.9619 119.208 35.5719 118.102 37.2239 117.78C37.8119 117.78 38.6659 118.13 39.0859 118.48V119.726H38.2039L37.7419 118.438C37.5179 118.312 37.3219 118.256 37.0139 118.256C35.9499 118.256 35.0959 119.194 35.0959 120.93C35.0959 122.554 35.9779 123.814 37.3919 123.814C37.9799 123.814 38.5539 123.548 39.0859 123.156L39.2119 123.45C38.5679 123.968 37.8679 124.374 37.0279 124.71ZM42.4036 127.79H40.9476V126.572H42.1796L43.5936 124.15L42.9356 124.444L40.6396 118.368L39.7856 118.256L39.8276 117.976L41.3256 118.004L42.7396 117.976L42.7676 118.256L41.8856 118.368L43.6636 123.254L43.7196 123.73L45.5676 118.368L44.5456 118.256L44.5736 117.976L45.9316 118.004L47.0236 117.976L47.0656 118.256L46.1556 118.368L44.0136 124.15L42.4036 127.79ZM52.5378 118.354V124.094L53.5878 124.22V126.6H53.2798L52.3418 124.5L49.9618 124.486L47.9738 124.5L47.0498 126.6H46.7558V124.22L47.6238 124.122C48.1138 123.184 48.4638 122.232 48.6178 121.448C48.7998 120.58 48.9118 119.306 48.9118 118.354L47.9038 118.256L47.9318 117.976L50.5498 117.99L53.5178 117.976L53.5458 118.256L52.5378 118.354ZM48.2538 124.136L51.4178 124.122V118.382H49.4018L49.0518 121.07C48.9258 122.106 48.6318 123.128 48.2538 124.136ZM58.2206 123.422L56.4146 124.71C55.2666 124.71 54.4966 124.08 54.4966 123.016C54.4966 122.54 54.6506 122.134 55.0986 121.672L58.1786 120.65V119.908C58.1786 119.068 58.1366 118.438 57.0726 118.438C56.7226 118.438 56.4006 118.522 56.0086 118.648L55.7146 119.894H54.7066V118.914L57.1706 117.78C58.9626 117.78 59.2986 118.382 59.2986 119.936V122.834C59.2986 123.38 59.3966 123.688 59.5506 124.01L60.2926 123.954L60.3346 124.234L58.5706 124.57L58.2206 123.422ZM56.5826 123.884C57.0026 123.884 57.4086 123.632 57.6466 123.464L58.1786 123.1V120.972L56.1206 121.784C55.8266 122.05 55.6446 122.372 55.6446 122.806C55.6446 123.534 56.0786 123.884 56.5826 123.884ZM62.4147 127.706L60.8607 127.734L60.8327 127.44L61.8127 127.342V118.508L60.8187 118.676L60.7767 118.41L62.5407 117.92L62.8767 117.906L62.9187 119.138L64.8367 117.78C66.5027 117.78 67.5107 119.068 67.5107 120.916C67.5107 123.072 66.2927 124.318 64.1927 124.71C63.7587 124.71 63.2827 124.598 62.9327 124.332V127.342L64.4027 127.44L64.3607 127.734L62.4147 127.706ZM64.4167 124.262C65.5507 124.248 66.3207 123.128 66.3207 121.378C66.3207 119.81 65.7047 118.634 64.6827 118.634C64.2067 118.634 63.8567 118.886 63.2967 119.278L62.9327 119.53V123.492C63.2267 123.954 63.7727 124.262 64.4167 124.262ZM71.6658 124.71C69.9158 124.71 68.5998 123.534 68.5998 121.434C68.5998 119.208 70.2098 118.102 71.8618 117.78C72.4498 117.78 73.3038 118.13 73.7238 118.48V119.726H72.8418L72.3798 118.438C72.1558 118.312 71.9598 118.256 71.6518 118.256C70.5878 118.256 69.7338 119.194 69.7338 120.93C69.7338 122.554 70.6158 123.814 72.0298 123.814C72.6178 123.814 73.1918 123.548 73.7238 123.156L73.8498 123.45C73.2058 123.968 72.5058 124.374 71.6658 124.71ZM77.6295 124.486L76.1035 124.514L76.0615 124.22L77.0415 124.122V118.326L75.5575 118.34L74.8435 120.37H74.5635V117.976H80.6395V120.37H80.3595L79.6455 118.34L78.1615 118.326V124.122L79.1835 124.22L79.1415 124.514L77.6295 124.486ZM82.9816 124.486L81.4556 124.514L81.4276 124.22L82.3936 124.122V118.354L81.4276 118.256L81.4556 117.976L82.9816 117.99L85.0816 117.962C86.5236 117.934 87.1536 118.648 87.1536 119.376C87.1536 120.286 86.2296 120.874 85.2356 121C86.7196 121.042 87.4476 121.742 87.4476 122.61C87.4476 123.856 86.3276 124.388 84.7036 124.514L82.9816 124.486ZM83.5136 118.34V120.902L84.6616 120.874C85.4876 120.846 85.9776 120.272 85.9776 119.432C85.9776 118.746 85.5576 118.298 84.7596 118.298L83.5136 118.34ZM83.5136 124.136L84.5216 124.178C85.8376 124.178 86.2576 123.422 86.2576 122.638C86.2576 121.77 85.6696 121.224 84.7876 121.224L83.5136 121.238V124.136ZM93.9786 123.184L94.1186 123.478C93.3766 124.01 92.6626 124.388 91.7666 124.71C90.1426 124.71 88.6166 123.576 88.6166 121.406C88.6166 119.25 89.9466 118.144 91.6686 117.78C93.4466 117.78 94.0626 118.886 94.0626 120.356V120.804H89.7226V120.832C89.7226 122.694 90.6886 123.8 92.2146 123.8C92.7886 123.8 93.4466 123.52 93.9786 123.184ZM91.3886 118.27C90.4366 118.27 89.8206 119.082 89.7366 120.468L92.8026 120.398V120.37C92.8026 119.18 92.5786 118.27 91.3886 118.27ZM102.277 118.256L101.255 118.354V124.122L102.277 124.22L102.235 124.514L100.695 124.486L99.3087 124.514L99.2667 124.22L100.135 124.122V121.252H97.0827V124.122L97.9227 124.22L97.8807 124.514L96.5227 124.486L94.9827 124.514L94.9547 124.22L95.9627 124.122V118.354L94.9547 118.256L94.9827 117.976L96.5227 117.99L97.8807 117.976L97.9227 118.256L97.0827 118.354V120.902H100.135V118.354L99.2667 118.256L99.3087 117.976L100.695 117.99L102.235 117.976L102.277 118.256ZM110.585 118.256L109.563 118.354V124.122L110.585 124.22L110.543 124.514L109.003 124.486L107.617 124.514L107.575 124.22L108.443 124.122V121.252H105.391V124.122L106.231 124.22L106.189 124.514L104.831 124.486L103.291 124.514L103.263 124.22L104.271 124.122V118.354L103.263 118.256L103.291 117.976L104.831 117.99L106.189 117.976L106.231 118.256L105.391 118.354V120.902H108.443V118.354L107.575 118.256L107.617 117.976L109.003 117.99L110.543 117.976L110.585 118.256ZM114.392 124.71C112.586 124.71 111.368 123.282 111.368 121.392C111.368 119.306 112.6 118.172 114.714 117.78C116.52 117.78 117.738 119.208 117.738 121.098C117.738 123.17 116.506 124.332 114.392 124.71ZM114.742 124.248C115.932 124.248 116.548 123.002 116.548 121.392C116.548 119.502 115.638 118.256 114.364 118.256C113.16 118.256 112.558 119.46 112.558 121.098C112.558 122.792 113.426 124.248 114.742 124.248ZM122.865 124.514H122.389L120.107 118.956L119.939 118.396V124.122L120.835 124.22L120.793 124.514L119.729 124.486L118.609 124.514L118.581 124.22L119.547 124.122V118.34L118.581 118.242L118.609 117.962L119.799 117.976L120.863 117.962L122.921 123.03L122.949 123.422L125.105 117.962L125.847 117.976L127.275 117.962L127.317 118.242L126.337 118.34V124.122L127.317 124.22L127.275 124.514L125.749 124.486L124.405 124.514L124.363 124.22L125.245 124.122V118.956L125.315 118.354L122.865 124.514ZM135.559 123.422L133.753 124.71C132.605 124.71 131.835 124.08 131.835 123.016C131.835 122.54 131.989 122.134 132.437 121.672L135.517 120.65V119.908C135.517 119.068 135.475 118.438 134.411 118.438C134.061 118.438 133.739 118.522 133.347 118.648L133.053 119.894H132.045V118.914L134.509 117.78C136.301 117.78 136.637 118.382 136.637 119.936V122.834C136.637 123.38 136.735 123.688 136.889 124.01L137.631 123.954L137.673 124.234L135.909 124.57L135.559 123.422ZM133.921 123.884C134.341 123.884 134.747 123.632 134.985 123.464L135.517 123.1V120.972L133.459 121.784C133.165 122.05 132.983 122.372 132.983 122.806C132.983 123.534 133.417 123.884 133.921 123.884ZM139.907 124.486L138.353 124.514L138.325 124.22L139.291 124.122V118.354L138.325 118.256L138.353 117.976L139.879 117.99L141.251 117.976L141.293 118.256L140.411 118.354V120.944L140.607 120.86L143.197 118.368L142.525 118.256V117.976L143.631 118.004L144.681 117.976L144.723 118.256L143.841 118.368L141.055 120.916L141.601 120.944L144.289 124.122L145.017 124.22L144.989 124.514L143.855 124.486L143.099 124.514L140.495 121.266L140.411 121.112V124.122L141.293 124.22L141.265 124.514L139.907 124.486ZM149.387 123.422L147.581 124.71C146.433 124.71 145.663 124.08 145.663 123.016C145.663 122.54 145.817 122.134 146.265 121.672L149.345 120.65V119.908C149.345 119.068 149.303 118.438 148.239 118.438C147.889 118.438 147.567 118.522 147.175 118.648L146.881 119.894H145.873V118.914L148.337 117.78C150.129 117.78 150.465 118.382 150.465 119.936V122.834C150.465 123.38 150.563 123.688 150.717 124.01L151.459 123.954L151.501 124.234L149.737 124.57L149.387 123.422ZM147.749 123.884C148.169 123.884 148.575 123.632 148.813 123.464L149.345 123.1V120.972L147.287 121.784C146.993 122.05 146.811 122.372 146.811 122.806C146.811 123.534 147.245 123.884 147.749 123.884ZM157.791 118.354V124.094L158.841 124.22V126.6H158.533L157.595 124.5L155.215 124.486L153.227 124.5L152.303 126.6H152.009V124.22L152.877 124.122C153.367 123.184 153.717 122.232 153.871 121.448C154.053 120.58 154.165 119.306 154.165 118.354L153.157 118.256L153.185 117.976L155.803 117.99L158.771 117.976L158.799 118.256L157.791 118.354ZM153.507 124.136L156.671 124.122V118.382H154.655L154.305 121.07C154.179 122.106 153.885 123.128 153.507 124.136ZM164.909 123.184L165.049 123.478C164.307 124.01 163.593 124.388 162.697 124.71C161.073 124.71 159.547 123.576 159.547 121.406C159.547 119.25 160.877 118.144 162.599 117.78C164.377 117.78 164.993 118.886 164.993 120.356V120.804H160.653V120.832C160.653 122.694 161.619 123.8 163.145 123.8C163.719 123.8 164.377 123.52 164.909 123.184ZM162.319 118.27C161.367 118.27 160.751 119.082 160.667 120.468L163.733 120.398V120.37C163.733 119.18 163.509 118.27 162.319 118.27ZM170.169 124.514H169.693L167.411 118.956L167.243 118.396V124.122L168.139 124.22L168.097 124.514L167.033 124.486L165.913 124.514L165.885 124.22L166.851 124.122V118.34L165.885 118.242L165.913 117.962L167.103 117.976L168.167 117.962L170.225 123.03L170.253 123.422L172.409 117.962L173.151 117.976L174.579 117.962L174.621 118.242L173.641 118.34V124.122L174.621 124.22L174.579 124.514L173.053 124.486L171.709 124.514L171.667 124.22L172.549 124.122V118.956L172.619 118.354L170.169 124.514ZM183.021 118.256L182.013 118.354V124.122L183.021 124.22L182.993 124.514L181.453 124.486L180.081 124.514L180.039 124.22L180.921 124.122V119.25L177.715 123.632V124.122L178.555 124.22L178.527 124.514L177.183 124.486L175.643 124.514L175.615 124.22L176.623 124.122V118.354L175.615 118.256L175.643 117.976L177.183 117.99L178.527 117.976L178.555 118.256L177.715 118.354V123.072L180.921 118.69V118.354L180.039 118.256L180.081 117.976L181.453 117.99L182.993 117.976L183.021 118.256ZM190.711 118.256L189.703 118.354V124.122L190.711 124.22L190.669 124.514L189.171 124.486L187.365 124.514L187.323 124.22L188.583 124.122V121.588L186.413 122.204C185.167 122.204 184.677 121.63 184.677 120.608V118.354L183.697 118.256L183.739 117.976L185.265 117.99L186.525 117.976L186.567 118.256L185.797 118.354V120.496C185.797 121.182 186.161 121.532 186.903 121.532C187.435 121.532 187.911 121.448 188.583 121.224V118.354L187.743 118.256L187.785 117.976L189.143 117.99L190.669 117.976L190.711 118.256ZM196.857 123.184L196.997 123.478C196.255 124.01 195.541 124.388 194.645 124.71C193.021 124.71 191.495 123.576 191.495 121.406C191.495 119.25 192.825 118.144 194.547 117.78C196.325 117.78 196.941 118.886 196.941 120.356V120.804H192.601V120.832C192.601 122.694 193.567 123.8 195.093 123.8C195.667 123.8 196.325 123.52 196.857 123.184ZM194.267 118.27C193.315 118.27 192.699 119.082 192.615 120.468L195.681 120.398V120.37C195.681 119.18 195.457 118.27 194.267 118.27ZM201.147 124.71C199.397 124.71 198.081 123.534 198.081 121.434C198.081 119.208 199.691 118.102 201.343 117.78C201.931 117.78 202.785 118.13 203.205 118.48V119.726H202.323L201.861 118.438C201.637 118.312 201.441 118.256 201.133 118.256C200.069 118.256 199.215 119.194 199.215 120.93C199.215 122.554 200.097 123.814 201.511 123.814C202.099 123.814 202.673 123.548 203.205 123.156L203.331 123.45C202.687 123.968 201.987 124.374 201.147 124.71ZM205.837 124.486L204.283 124.514L204.255 124.22L205.221 124.122V118.354L204.255 118.256L204.283 117.976L205.809 117.99L207.181 117.976L207.223 118.256L206.341 118.354V120.944L206.537 120.86L209.127 118.368L208.455 118.256V117.976L209.561 118.004L210.611 117.976L210.653 118.256L209.771 118.368L206.985 120.916L207.531 120.944L210.219 124.122L210.947 124.22L210.919 124.514L209.785 124.486L209.029 124.514L206.425 121.266L206.341 121.112V124.122L207.223 124.22L207.195 124.514L205.837 124.486ZM214.263 124.71C212.457 124.71 211.239 123.282 211.239 121.392C211.239 119.306 212.471 118.172 214.585 117.78C216.391 117.78 217.609 119.208 217.609 121.098C217.609 123.17 216.377 124.332 214.263 124.71ZM214.613 124.248C215.803 124.248 216.419 123.002 216.419 121.392C216.419 119.502 215.509 118.256 214.235 118.256C213.031 118.256 212.429 119.46 212.429 121.098C212.429 122.792 213.297 124.248 214.613 124.248ZM222.736 124.514H222.26L219.978 118.956L219.81 118.396V124.122L220.706 124.22L220.664 124.514L219.6 124.486L218.48 124.514L218.452 124.22L219.418 124.122V118.34L218.452 118.242L218.48 117.962L219.67 117.976L220.734 117.962L222.792 123.03L222.82 123.422L224.976 117.962L225.718 117.976L227.146 117.962L227.188 118.242L226.208 118.34V124.122L227.188 124.22L227.146 124.514L225.62 124.486L224.276 124.514L224.234 124.22L225.116 124.122V118.956L225.186 118.354L222.736 124.514ZM37.8181 144.486L36.2921 144.514L36.2501 144.22L37.2301 144.122V138.326L35.7461 138.34L35.0321 140.37H34.7521V137.976H40.8281V140.37H40.5481L39.8341 138.34L38.3501 138.326V144.122L39.3721 144.22L39.3301 144.514L37.8181 144.486ZM46.9798 143.184L47.1199 143.478C46.3778 144.01 45.6638 144.388 44.7678 144.71C43.1438 144.71 41.6178 143.576 41.6178 141.406C41.6178 139.25 42.9478 138.144 44.6698 137.78C46.4478 137.78 47.0638 138.886 47.0638 140.356V140.804H42.7238V140.832C42.7238 142.694 43.6898 143.8 45.2158 143.8C45.7898 143.8 46.4478 143.52 46.9798 143.184ZM44.3898 138.27C43.4378 138.27 42.8218 139.082 42.7378 140.468L45.8038 140.398V140.37C45.8038 139.18 45.5798 138.27 44.3898 138.27ZM51.9123 143.422L50.1063 144.71C48.9583 144.71 48.1883 144.08 48.1883 143.016C48.1883 142.54 48.3423 142.134 48.7903 141.672L51.8703 140.65V139.908C51.8703 139.068 51.8283 138.438 50.7643 138.438C50.4143 138.438 50.0923 138.522 49.7003 138.648L49.4063 139.894H48.3983V138.914L50.8623 137.78C52.6543 137.78 52.9903 138.382 52.9903 139.936V142.834C52.9903 143.38 53.0883 143.688 53.2423 144.01L53.9843 143.954L54.0263 144.234L52.2623 144.57L51.9123 143.422ZM50.2743 143.884C50.6943 143.884 51.1003 143.632 51.3383 143.464L51.8703 143.1V140.972L49.8123 141.784C49.5183 142.05 49.3363 142.372 49.3363 142.806C49.3363 143.534 49.7703 143.884 50.2743 143.884ZM57.5344 144.486L56.0084 144.514L55.9664 144.22L56.9464 144.122V138.326L55.4624 138.34L54.7484 140.37H54.4684V137.976H60.5444V140.37H60.2644L59.5504 138.34L58.0664 138.326V144.122L59.0884 144.22L59.0464 144.514L57.5344 144.486ZM62.7605 147.706L61.2065 147.734L61.1785 147.44L62.1585 147.342V138.508L61.1645 138.676L61.1225 138.41L62.8865 137.92L63.2225 137.906L63.2645 139.138L65.1825 137.78C66.8485 137.78 67.8565 139.068 67.8565 140.916C67.8565 143.072 66.6385 144.318 64.5385 144.71C64.1045 144.71 63.6285 144.598 63.2785 144.332V147.342L64.7485 147.44L64.7065 147.734L62.7605 147.706ZM64.7625 144.262C65.8965 144.248 66.6665 143.128 66.6665 141.378C66.6665 139.81 66.0505 138.634 65.0285 138.634C64.5525 138.634 64.2025 138.886 63.6425 139.278L63.2785 139.53V143.492C63.5725 143.954 64.1185 144.262 64.7625 144.262ZM74.2937 143.184L74.4337 143.478C73.6917 144.01 72.9777 144.388 72.0817 144.71C70.4577 144.71 68.9317 143.576 68.9317 141.406C68.9317 139.25 70.2617 138.144 71.9837 137.78C73.7617 137.78 74.3777 138.886 74.3777 140.356V140.804H70.0377V140.832C70.0377 142.694 71.0037 143.8 72.5297 143.8C73.1037 143.8 73.7617 143.52 74.2937 143.184ZM71.7037 138.27C70.7517 138.27 70.1357 139.082 70.0517 140.468L73.1177 140.398V140.37C73.1177 139.18 72.8937 138.27 71.7037 138.27ZM80.6074 144.486L79.0534 144.514L79.0254 144.22L79.9914 144.122V138.354L79.0254 138.256L79.0534 137.976L80.5794 137.99L81.9514 137.976L81.9934 138.256L81.1114 138.354V140.944L81.3074 140.86L83.8974 138.368L83.2254 138.256V137.976L84.3314 138.004L85.3814 137.976L85.4234 138.256L84.5414 138.368L81.7554 140.916L82.3014 140.944L84.9894 144.122L85.7174 144.22L85.6894 144.514L84.5554 144.486L83.7994 144.514L81.1954 141.266L81.1114 141.112V144.122L81.9934 144.22L81.9654 144.514L80.6074 144.486ZM87.4832 144.57H86.1112V143.31H87.1892C87.5252 142.764 87.8332 142.12 87.9732 141.448C88.0992 140.748 88.2392 139.124 88.2392 138.354L87.2172 138.256L87.2592 137.976L89.8492 137.99L92.7052 137.976L92.7332 138.256L91.7252 138.354V144.122L92.7332 144.22L92.7052 144.514L91.1652 144.486L89.6952 144.514L89.6532 144.22L90.6052 144.122V138.382H88.7292L88.4072 141.042C88.2672 142.204 87.9872 143.576 87.4832 144.57ZM97.4522 143.422L95.6462 144.71C94.4982 144.71 93.7282 144.08 93.7282 143.016C93.7282 142.54 93.8822 142.134 94.3302 141.672L97.4102 140.65V139.908C97.4102 139.068 97.3682 138.438 96.3042 138.438C95.9542 138.438 95.6322 138.522 95.2402 138.648L94.9462 139.894H93.9382V138.914L96.4022 137.78C98.1942 137.78 98.5302 138.382 98.5302 139.936V142.834C98.5302 143.38 98.6282 143.688 98.7822 144.01L99.5242 143.954L99.5662 144.234L97.8022 144.57L97.4522 143.422ZM95.8142 143.884C96.2342 143.884 96.6402 143.632 96.8782 143.464L97.4102 143.1V140.972L95.3522 141.784C95.0582 142.05 94.8762 142.372 94.8762 142.806C94.8762 143.534 95.3102 143.884 95.8142 143.884ZM103.163 144.71C101.413 144.71 100.097 143.534 100.097 141.434C100.097 139.208 101.707 138.102 103.359 137.78C103.947 137.78 104.801 138.13 105.221 138.48V139.726H104.339L103.877 138.438C103.653 138.312 103.457 138.256 103.149 138.256C102.085 138.256 101.231 139.194 101.231 140.93C101.231 142.554 102.113 143.814 103.527 143.814C104.115 143.814 104.689 143.548 105.221 143.156L105.347 143.45C104.703 143.968 104.003 144.374 103.163 144.71ZM109.353 144.71C107.603 144.71 106.287 143.534 106.287 141.434C106.287 139.208 107.897 138.102 109.549 137.78C110.137 137.78 110.991 138.13 111.411 138.48V139.726H110.529L110.067 138.438C109.843 138.312 109.647 138.256 109.339 138.256C108.275 138.256 107.421 139.194 107.421 140.93C107.421 142.554 108.303 143.814 109.717 143.814C110.305 143.814 110.879 143.548 111.411 143.156L111.537 143.45C110.893 143.968 110.193 144.374 109.353 144.71ZM119.866 138.256L118.858 138.354V144.122L119.866 144.22L119.838 144.514L118.298 144.486L116.926 144.514L116.884 144.22L117.766 144.122V139.25L114.56 143.632V144.122L115.4 144.22L115.372 144.514L114.028 144.486L112.488 144.514L112.46 144.22L113.468 144.122V138.354L112.46 138.256L112.488 137.976L114.028 137.99L115.372 137.976L115.4 138.256L114.56 138.354V143.072L117.766 138.69V138.354L116.884 138.256L116.926 137.976L118.298 137.99L119.838 137.976L119.866 138.256ZM127.556 138.256L126.548 138.354V144.122L127.556 144.22L127.514 144.514L126.016 144.486L124.21 144.514L124.168 144.22L125.428 144.122V141.588L123.258 142.204C122.012 142.204 121.522 141.63 121.522 140.608V138.354L120.542 138.256L120.584 137.976L122.11 137.99L123.37 137.976L123.412 138.256L122.642 138.354V140.496C122.642 141.182 123.006 141.532 123.748 141.532C124.28 141.532 124.756 141.448 125.428 141.224V138.354L124.588 138.256L124.63 137.976L125.988 137.99L127.514 137.976L127.556 138.256ZM133.702 143.184L133.842 143.478C133.1 144.01 132.386 144.388 131.49 144.71C129.866 144.71 128.34 143.576 128.34 141.406C128.34 139.25 129.67 138.144 131.392 137.78C133.17 137.78 133.786 138.886 133.786 140.356V140.804H129.446V140.832C129.446 142.694 130.412 143.8 131.938 143.8C132.512 143.8 133.17 143.52 133.702 143.184ZM131.112 138.27C130.16 138.27 129.544 139.082 129.46 140.468L132.526 140.398V140.37C132.526 139.18 132.302 138.27 131.112 138.27ZM137.993 144.71C136.243 144.71 134.927 143.534 134.927 141.434C134.927 139.208 136.537 138.102 138.189 137.78C138.777 137.78 139.631 138.13 140.051 138.48V139.726H139.169L138.707 138.438C138.483 138.312 138.287 138.256 137.979 138.256C136.915 138.256 136.061 139.194 136.061 140.93C136.061 142.554 136.943 143.814 138.357 143.814C138.945 143.814 139.519 143.548 140.051 143.156L140.177 143.45C139.533 143.968 138.833 144.374 137.993 144.71ZM142.682 144.486L141.128 144.514L141.1 144.22L142.066 144.122V138.354L141.1 138.256L141.128 137.976L142.654 137.99L144.026 137.976L144.068 138.256L143.186 138.354V140.944L143.382 140.86L145.972 138.368L145.3 138.256V137.976L146.406 138.004L147.456 137.976L147.498 138.256L146.616 138.368L143.83 140.916L144.376 140.944L147.064 144.122L147.792 144.22L147.764 144.514L146.63 144.486L145.874 144.514L143.27 141.266L143.186 141.112V144.122L144.068 144.22L144.04 144.514L142.682 144.486ZM151.108 144.71C149.302 144.71 148.084 143.282 148.084 141.392C148.084 139.306 149.316 138.172 151.43 137.78C153.236 137.78 154.454 139.208 154.454 141.098C154.454 143.17 153.222 144.332 151.108 144.71ZM151.458 144.248C152.648 144.248 153.264 143.002 153.264 141.392C153.264 139.502 152.354 138.256 151.08 138.256C149.876 138.256 149.274 139.46 149.274 141.098C149.274 142.792 150.142 144.248 151.458 144.248ZM156.851 144.486L155.325 144.514L155.297 144.22L156.263 144.122V138.354L155.297 138.256L155.325 137.976L156.851 137.99L160.477 137.976V140.37H160.197L159.469 138.34L157.383 138.326V144.094L158.545 144.206L158.503 144.514L156.851 144.486ZM164.293 144.71C162.487 144.71 161.269 143.282 161.269 141.392C161.269 139.306 162.501 138.172 164.615 137.78C166.421 137.78 167.639 139.208 167.639 141.098C167.639 143.17 166.407 144.332 164.293 144.71ZM164.643 144.248C165.833 144.248 166.449 143.002 166.449 141.392C166.449 139.502 165.539 138.256 164.265 138.256C163.061 138.256 162.459 139.46 162.459 141.098C162.459 142.792 163.327 144.248 164.643 144.248ZM175.738 137.906C177.53 137.906 178.51 139.222 178.51 141.056C178.51 143.17 177.236 144.36 175.206 144.71C173.358 144.71 172.308 142.974 172.308 140.692C172.308 138.606 173.134 136.87 174.366 135.582L174.884 135.05L177.964 134.672C178.076 134.49 178.216 134.21 178.3 134.028L178.58 134.07C178.384 134.7 178.132 135.47 178.02 135.778L174.604 135.946C174.17 136.464 173.638 137.57 173.456 139.362C174.17 138.83 174.758 138.452 175.738 137.906ZM175.556 144.248C176.718 144.248 177.32 142.974 177.32 141.42C177.32 139.754 176.648 138.746 175.598 138.746C175.136 138.746 174.688 138.942 174.03 139.376L173.568 139.656C173.526 139.992 173.526 140.3 173.526 140.636C173.526 142.848 174.352 144.248 175.556 144.248ZM183.327 143.422L181.521 144.71C180.373 144.71 179.603 144.08 179.603 143.016C179.603 142.54 179.757 142.134 180.205 141.672L183.285 140.65V139.908C183.285 139.068 183.243 138.438 182.179 138.438C181.829 138.438 181.507 138.522 181.115 138.648L180.821 139.894H179.813V138.914L182.277 137.78C184.069 137.78 184.405 138.382 184.405 139.936V142.834C184.405 143.38 184.503 143.688 184.657 144.01L185.399 143.954L185.441 144.234L183.677 144.57L183.327 143.422ZM181.689 143.884C182.109 143.884 182.515 143.632 182.753 143.464L183.285 143.1V140.972L181.227 141.784C180.933 142.05 180.751 142.372 180.751 142.806C180.751 143.534 181.185 143.884 181.689 143.884ZM187.35 144.57H185.978V143.31H187.056C187.392 142.764 187.7 142.12 187.84 141.448C187.966 140.748 188.106 139.124 188.106 138.354L187.084 138.256L187.126 137.976L189.716 137.99L192.572 137.976L192.6 138.256L191.592 138.354V144.122L192.6 144.22L192.572 144.514L191.032 144.486L189.562 144.514L189.52 144.22L190.472 144.122V138.382H188.596L188.274 141.042C188.134 142.204 187.854 143.576 187.35 144.57ZM198.754 143.184L198.894 143.478C198.152 144.01 197.438 144.388 196.542 144.71C194.918 144.71 193.392 143.576 193.392 141.406C193.392 139.25 194.722 138.144 196.444 137.78C198.222 137.78 198.838 138.886 198.838 140.356V140.804H194.498V140.832C194.498 142.694 195.464 143.8 196.99 143.8C197.564 143.8 198.222 143.52 198.754 143.184ZM196.164 138.27C195.212 138.27 194.596 139.082 194.512 140.468L197.578 140.398V140.37C197.578 139.18 197.354 138.27 196.164 138.27ZM202.75 144.486L201.224 144.514L201.182 144.22L202.162 144.122V138.326L200.678 138.34L199.964 140.37H199.684V137.976H205.76V140.37H205.48L204.766 138.34L203.282 138.326V144.122L204.304 144.22L204.262 144.514L202.75 144.486ZM210.272 143.422L208.466 144.71C207.318 144.71 206.548 144.08 206.548 143.016C206.548 142.54 206.702 142.134 207.15 141.672L210.23 140.65V139.908C210.23 139.068 210.188 138.438 209.124 138.438C208.774 138.438 208.452 138.522 208.06 138.648L207.766 139.894H206.758V138.914L209.222 137.78C211.014 137.78 211.35 138.382 211.35 139.936V142.834C211.35 143.38 211.448 143.688 211.602 144.01L212.344 143.954L212.386 144.234L210.622 144.57L210.272 143.422ZM208.634 143.884C209.054 143.884 209.46 143.632 209.698 143.464L210.23 143.1V140.972L208.172 141.784C207.878 142.05 207.696 142.372 207.696 142.806C207.696 143.534 208.13 143.884 208.634 143.884ZM36.7212 164.486L34.9012 164.514L34.8732 164.22L36.1052 164.094V155.106L34.8732 154.98L34.9012 154.686L36.7212 154.714L38.5692 154.686L38.6112 154.98L37.3652 155.106V159.208H42.0552V155.106L40.7952 154.98L40.8372 154.686L42.6992 154.714L44.5052 154.686L44.5332 154.98L43.3152 155.106V164.094L44.5332 164.22L44.5052 164.514L42.6992 164.486L40.8372 164.514L40.7952 164.22L42.0552 164.094V159.628H37.3652V164.094L38.6112 164.22L38.5692 164.514L36.7212 164.486ZM47.5476 164.5L46.5956 164.57L46.2316 164.5L46.1616 163.758L46.2456 163.156L47.1976 163.086L47.5756 163.156L47.6316 163.87L47.5476 164.5ZM53.0756 164.486L51.1996 164.514L51.1716 164.22L52.4176 164.094V155.106L51.1716 154.98L51.1996 154.686L53.0756 154.714L54.7976 154.686L54.8256 154.98L53.6776 155.106V159.348L53.8736 159.208L58.2556 155.106L57.1076 154.966L57.1496 154.686L58.5636 154.714L59.8656 154.686L59.9076 154.966L58.7876 155.12L54.4196 159.292H55.0216L59.4176 164.122L60.2716 164.22L60.2296 164.514L58.9136 164.486L57.9896 164.514L53.7896 159.74L53.6776 159.544V164.094L54.8256 164.22L54.7976 164.514L53.0756 164.486ZM64.5165 163.422L62.7105 164.71C61.5625 164.71 60.7925 164.08 60.7925 163.016C60.7925 162.54 60.9465 162.134 61.3945 161.672L64.4745 160.65V159.908C64.4745 159.068 64.4325 158.438 63.3685 158.438C63.0185 158.438 62.6965 158.522 62.3045 158.648L62.0105 159.894H61.0025V158.914L63.4665 157.78C65.2585 157.78 65.5945 158.382 65.5945 159.936V162.834C65.5945 163.38 65.6925 163.688 65.8465 164.01L66.5885 163.954L66.6305 164.234L64.8665 164.57L64.5165 163.422ZM62.8785 163.884C63.2985 163.884 63.7045 163.632 63.9425 163.464L64.4745 163.1V160.972L62.4165 161.784C62.1225 162.05 61.9405 162.372 61.9405 162.806C61.9405 163.534 62.3745 163.884 62.8785 163.884ZM70.2275 164.71C68.4775 164.71 67.1615 163.534 67.1615 161.434C67.1615 159.208 68.7715 158.102 70.4235 157.78C71.0115 157.78 71.8655 158.13 72.2855 158.48V159.726H71.4035L70.9415 158.438C70.7175 158.312 70.5215 158.256 70.2135 158.256C69.1495 158.256 68.2955 159.194 68.2955 160.93C68.2955 162.554 69.1775 163.814 70.5915 163.814C71.1795 163.814 71.7535 163.548 72.2855 163.156L72.4115 163.45C71.7675 163.968 71.0675 164.374 70.2275 164.71ZM77.0592 163.422L75.2532 164.71C74.1052 164.71 73.3352 164.08 73.3352 163.016C73.3352 162.54 73.4892 162.134 73.9372 161.672L77.0172 160.65V159.908C77.0172 159.068 76.9752 158.438 75.9112 158.438C75.5612 158.438 75.2392 158.522 74.8472 158.648L74.5532 159.894H73.5452V158.914L76.0092 157.78C77.8012 157.78 78.1372 158.382 78.1372 159.936V162.834C78.1372 163.38 78.2352 163.688 78.3892 164.01L79.1312 163.954L79.1732 164.234L77.4092 164.57L77.0592 163.422ZM75.4212 163.884C75.8412 163.884 76.2472 163.632 76.4852 163.464L77.0172 163.1V160.972L74.9592 161.784C74.6652 162.05 74.4832 162.372 74.4832 162.806C74.4832 163.534 74.9172 163.884 75.4212 163.884ZM82.6812 164.486L81.1552 164.514L81.1132 164.22L82.0932 164.122V158.326L80.6092 158.34L79.8952 160.37H79.6152V157.976H85.6912V160.37H85.4112L84.6972 158.34L83.2132 158.326V164.122L84.2352 164.22L84.1932 164.514L82.6812 164.486ZM88.0614 164.486L86.5074 164.514L86.4794 164.22L87.4454 164.122V158.354L86.4794 158.256L86.5074 157.976L88.0334 157.99L89.4054 157.976L89.4474 158.256L88.5654 158.354V160.944L88.7614 160.86L91.3514 158.368L90.6794 158.256V157.976L91.7854 158.004L92.8354 157.976L92.8774 158.256L91.9954 158.368L89.2094 160.916L89.7554 160.944L92.4434 164.122L93.1714 164.22L93.1434 164.514L92.0094 164.486L91.2534 164.514L88.6494 161.266L88.5654 161.112V164.122L89.4474 164.22L89.4194 164.514L88.0614 164.486ZM101.223 158.256L100.215 158.354V164.122L101.223 164.22L101.195 164.514L99.6551 164.486L98.2831 164.514L98.2411 164.22L99.1231 164.122V159.25L95.9171 163.632V164.122L96.7571 164.22L96.7291 164.514L95.3851 164.486L93.8451 164.514L93.8171 164.22L94.8251 164.122V158.354L93.8171 158.256L93.8451 157.976L95.3851 157.99L96.7291 157.976L96.7571 158.256L95.9171 158.354V163.072L99.1231 158.69V158.354L98.2411 158.256L98.2831 157.976L99.6551 157.99L101.195 157.976L101.223 158.256ZM109.543 158.256L108.521 158.354V164.122L109.543 164.22L109.501 164.514L107.961 164.486L106.575 164.514L106.533 164.22L107.401 164.122V161.252H104.349V164.122L105.189 164.22L105.147 164.514L103.789 164.486L102.249 164.514L102.221 164.22L103.229 164.122V158.354L102.221 158.256L102.249 157.976L103.789 157.99L105.147 157.976L105.189 158.256L104.349 158.354V160.902H107.401V158.354L106.533 158.256L106.575 157.976L107.961 157.99L109.501 157.976L109.543 158.256ZM113.35 164.71C111.544 164.71 110.326 163.282 110.326 161.392C110.326 159.306 111.558 158.172 113.672 157.78C115.478 157.78 116.696 159.208 116.696 161.098C116.696 163.17 115.464 164.332 113.35 164.71ZM113.7 164.248C114.89 164.248 115.506 163.002 115.506 161.392C115.506 159.502 114.596 158.256 113.322 158.256C112.118 158.256 111.516 159.46 111.516 161.098C111.516 162.792 112.384 164.248 113.7 164.248ZM121.389 156.8C120.185 156.8 119.751 156.394 119.471 156.184L119.317 155.61L119.429 155.106L120.045 155.05L120.353 155.106L120.479 155.736V156.352C120.661 156.45 120.927 156.52 121.235 156.52C121.501 156.52 121.739 156.45 121.935 156.352V155.694L122.089 155.12L122.705 155.05L123.041 155.106L123.111 155.708L122.943 156.184C122.649 156.436 122.187 156.716 121.389 156.8ZM124.945 158.256L123.937 158.354V164.122L124.945 164.22L124.917 164.514L123.377 164.486L122.005 164.514L121.963 164.22L122.845 164.122V159.25L119.639 163.632V164.122L120.479 164.22L120.451 164.514L119.107 164.486L117.567 164.514L117.539 164.22L118.547 164.122V158.354L117.539 158.256L117.567 157.976L119.107 157.99L120.451 157.976L120.479 158.256L119.639 158.354V163.072L122.845 158.69V158.354L121.963 158.256L122.005 157.976L123.377 157.99L124.917 157.976L124.945 158.256ZM136.873 158.256L135.865 158.354V164.122L136.873 164.22L136.845 164.514L135.305 164.486L133.933 164.514L133.891 164.22L134.773 164.122V159.25L131.567 163.632V164.122L132.407 164.22L132.379 164.514L131.035 164.486L129.495 164.514L129.467 164.22L130.475 164.122V158.354L129.467 158.256L129.495 157.976L131.035 157.99L132.379 157.976L132.407 158.256L131.567 158.354V163.072L134.773 158.69V158.354L133.891 158.256L133.933 157.976L135.305 157.99L136.845 157.976L136.873 158.256ZM143.324 164.486L141.49 164.514L141.462 164.22L142.708 164.094V155.106L141.462 154.98L141.49 154.686L143.38 154.714L145.998 154.686C147.804 154.686 148.714 155.722 148.714 156.814C148.714 158.088 147.524 159.068 146.222 159.264C148.266 159.32 149.288 160.37 149.288 161.658C149.288 163.52 147.776 164.332 145.564 164.514L143.324 164.486ZM143.968 155.106V159.152H145.354C146.642 159.152 147.398 158.144 147.398 156.898C147.398 155.792 146.726 155.05 145.536 155.036L143.968 155.106ZM143.968 164.094L145.34 164.164C147.328 164.164 147.958 162.96 147.958 161.728C147.958 160.37 147.02 159.544 145.62 159.544H143.968V164.094ZM152.455 164.5L151.503 164.57L151.139 164.5L151.069 163.758L151.153 163.156L152.105 163.086L152.483 163.156L152.539 163.87L152.455 164.5ZM157.941 164.486L156.107 164.514L156.079 164.22L157.325 164.094V155.106L156.079 154.98L156.107 154.686L157.997 154.714L160.615 154.686C162.421 154.686 163.331 155.722 163.331 156.814C163.331 158.088 162.141 159.068 160.839 159.264C162.883 159.32 163.905 160.37 163.905 161.658C163.905 163.52 162.393 164.332 160.181 164.514L157.941 164.486ZM158.585 155.106V159.152H159.971C161.259 159.152 162.015 158.144 162.015 156.898C162.015 155.792 161.343 155.05 160.153 155.036L158.585 155.106ZM158.585 164.094L159.957 164.164C161.945 164.164 162.575 162.96 162.575 161.728C162.575 160.37 161.637 159.544 160.237 159.544H158.585V164.094ZM168.85 163.422L167.044 164.71C165.896 164.71 165.126 164.08 165.126 163.016C165.126 162.54 165.28 162.134 165.728 161.672L168.808 160.65V159.908C168.808 159.068 168.766 158.438 167.702 158.438C167.352 158.438 167.03 158.522 166.638 158.648L166.344 159.894H165.336V158.914L167.8 157.78C169.592 157.78 169.928 158.382 169.928 159.936V162.834C169.928 163.38 170.026 163.688 170.18 164.01L170.922 163.954L170.964 164.234L169.2 164.57L168.85 163.422ZM167.212 163.884C167.632 163.884 168.038 163.632 168.276 163.464L168.808 163.1V160.972L166.75 161.784C166.456 162.05 166.274 162.372 166.274 162.806C166.274 163.534 166.708 163.884 167.212 163.884ZM174.561 164.71C172.811 164.71 171.495 163.534 171.495 161.434C171.495 159.208 173.105 158.102 174.757 157.78C175.345 157.78 176.199 158.13 176.619 158.48V159.726H175.737L175.275 158.438C175.051 158.312 174.855 158.256 174.547 158.256C173.483 158.256 172.629 159.194 172.629 160.93C172.629 162.554 173.511 163.814 174.925 163.814C175.513 163.814 176.087 163.548 176.619 163.156L176.745 163.45C176.101 163.968 175.401 164.374 174.561 164.71ZM185.075 158.256L184.067 158.354V164.122L185.075 164.22L185.047 164.514L183.507 164.486L182.135 164.514L182.093 164.22L182.975 164.122V159.25L179.769 163.632V164.122L180.609 164.22L180.581 164.514L179.237 164.486L177.697 164.514L177.669 164.22L178.677 164.122V158.354L177.669 158.256L177.697 157.976L179.237 157.99L180.581 157.976L180.609 158.256L179.769 158.354V163.072L182.975 158.69V158.354L182.093 158.256L182.135 157.976L183.507 157.99L185.047 157.976L185.075 158.256ZM187.193 164.57H185.821V163.31H186.899C187.235 162.764 187.543 162.12 187.683 161.448C187.809 160.748 187.949 159.124 187.949 158.354L186.927 158.256L186.969 157.976L189.559 157.99L192.415 157.976L192.443 158.256L191.435 158.354V164.122L192.443 164.22L192.415 164.514L190.875 164.486L189.405 164.514L189.363 164.22L190.315 164.122V158.382H188.439L188.117 161.042C187.977 162.204 187.697 163.576 187.193 164.57ZM195.544 156.226L194.788 156.282L194.466 156.226L194.41 155.61L194.522 155.106L195.278 155.036L195.586 155.106L195.656 155.694L195.544 156.226ZM198.05 156.226L197.308 156.282L196.986 156.226L196.93 155.61L197.042 155.106L197.798 155.036L198.106 155.106L198.176 155.694L198.05 156.226ZM198.596 163.184L198.736 163.478C197.994 164.01 197.28 164.388 196.384 164.71C194.76 164.71 193.234 163.576 193.234 161.406C193.234 159.25 194.564 158.144 196.286 157.78C198.064 157.78 198.68 158.886 198.68 160.356V160.804H194.34V160.832C194.34 162.694 195.306 163.8 196.832 163.8C197.406 163.8 198.064 163.52 198.596 163.184ZM196.006 158.27C195.054 158.27 194.438 159.082 194.354 160.468L197.42 160.398V160.37C197.42 159.18 197.196 158.27 196.006 158.27ZM201.126 164.486L199.6 164.514L199.572 164.22L200.538 164.122V158.354L199.572 158.256L199.6 157.976L201.126 157.99L203.226 157.962C204.668 157.934 205.298 158.648 205.298 159.376C205.298 160.286 204.374 160.874 203.38 161C204.864 161.042 205.592 161.742 205.592 162.61C205.592 163.856 204.472 164.388 202.848 164.514L201.126 164.486ZM201.658 158.34V160.902L202.806 160.874C203.632 160.846 204.122 160.272 204.122 159.432C204.122 158.746 203.702 158.298 202.904 158.298L201.658 158.34ZM201.658 164.136L202.666 164.178C203.982 164.178 204.402 163.422 204.402 162.638C204.402 161.77 203.814 161.224 202.932 161.224L201.658 161.238V164.136ZM210.429 163.422L208.623 164.71C207.475 164.71 206.705 164.08 206.705 163.016C206.705 162.54 206.859 162.134 207.307 161.672L210.387 160.65V159.908C210.387 159.068 210.345 158.438 209.281 158.438C208.931 158.438 208.609 158.522 208.217 158.648L207.923 159.894H206.915V158.914L209.379 157.78C211.171 157.78 211.507 158.382 211.507 159.936V162.834C211.507 163.38 211.605 163.688 211.759 164.01L212.501 163.954L212.543 164.234L210.779 164.57L210.429 163.422ZM208.791 163.884C209.211 163.884 209.617 163.632 209.855 163.464L210.387 163.1V160.972L208.329 161.784C208.035 162.05 207.853 162.372 207.853 162.806C207.853 163.534 208.287 163.884 208.791 163.884Z" fill="#DECABD"/>
<defs>
<linearGradient id="paint0_linear_968_961" x1="104.5" y1="101.5" x2="54" y2="101.5" gradientUnits="userSpaceOnUse">
<stop stop-color="#AE8E7E"/>
<stop offset="1" stop-color="#AE8E7E" stop-opacity="0"/>
</linearGradient>
<linearGradient id="paint1_linear_968_961" x1="-0.5" y1="-1.44564e-09" x2="51.5" y2="1.70138e-07" gradientUnits="userSpaceOnUse">
<stop stop-color="#AE8E7E"/>
<stop offset="1" stop-color="#AE8E7E" stop-opacity="0"/>
</linearGradient>
</defs>
</svg>
